<?xml version="1.0" encoding="UTF-8" standalone="no"?>
<!-- Created with Inkscape (http://www.inkscape.org/) -->

<svg
   xmlns:dc="http://purl.org/dc/elements/1.1/"
   xmlns:cc="http://creativecommons.org/ns#"
   xmlns:rdf="http://www.w3.org/1999/02/22-rdf-syntax-ns#"
   xmlns:svg="http://www.w3.org/2000/svg"
   xmlns="http://www.w3.org/2000/svg"
   xmlns:sodipodi="http://sodipodi.sourceforge.net/DTD/sodipodi-0.dtd"
   xmlns:inkscape="http://www.inkscape.org/namespaces/inkscape"
   width="581.203"
   height="260.98801"
   viewBox="0 0 153.77662 69.053079"
   version="1.1"
   id="svg515"
   inkscape:version="0.92.3 (2405546, 2018-03-11)"
   sodipodi:docname="mozilla_mexico_imagotipo_horizontal.svg"
   inkscape:export-filename="/home/helix/Documentos/zittec/mozilla-mexico.org/fuentes/logotipo/mozilla_mexico_imagotipo_horizontal_200.png"
   inkscape:export-xdpi="33.029999"
   inkscape:export-ydpi="33.029999">
  <defs
     id="defs509" />
  <sodipodi:namedview
     id="base"
     pagecolor="#ffffff"
     bordercolor="#666666"
     borderopacity="1.0"
     inkscape:pageopacity="0"
     inkscape:pageshadow="2"
     inkscape:zoom="0.98994949"
     inkscape:cx="235.55594"
     inkscape:cy="82.487117"
     inkscape:document-units="mm"
     inkscape:current-layer="g845"
     showgrid="false"
     units="px"
     inkscape:pagecheckerboard="true"
     inkscape:showpageshadow="false"
     inkscape:window-width="1366"
     inkscape:window-height="714"
     inkscape:window-x="0"
     inkscape:window-y="27"
     inkscape:window-maximized="1" />
  <metadata
     id="metadata512">
    <rdf:RDF>
      <cc:Work
         rdf:about="">
        <dc:format>image/svg+xml</dc:format>
        <dc:type
           rdf:resource="http://purl.org/dc/dcmitype/StillImage" />
        <dc:title />
      </cc:Work>
    </rdf:RDF>
  </metadata>
  <g
     inkscape:label="texto"
     inkscape:groupmode="layer"
     id="layer1"
     transform="translate(0,-227.94692)"
     sodipodi:insensitive="true"
     style="display:none">
    <rect
       style="opacity:1;fill:#ffffff;fill-opacity:1;stroke:none;stroke-width:0.10035282;stroke-miterlimit:4;stroke-dasharray:none;stroke-opacity:1"
       id="rect4300"
       width="49.753452"
       height="46.561642"
       x="11.652498"
       y="239.28937"
       inkscape:export-xdpi="41.82"
       inkscape:export-ydpi="41.82" />
    <path
       style="fill:#e41f51;fill-opacity:1;stroke-width:0.58366728"
       inkscape:connector-curvature="0"
       d="m 45.93785,278.64425 c 0.41329,0.2266 0.82649,0.44961 1.239668,0.6735 0.223502,-0.4972 0.447112,-0.99319 0.67065,-1.4897 0.32807,-0.7309 0.32807,-0.65539 -0.229539,-1.2399 -0.225769,-0.2378 -0.452361,-0.4737 -0.6847,-0.72109 l -0.0891,-0.10901 c 0.25975,-0.25299 0.46989,-0.5497 0.615842,-0.88349 l 1.230868,1.10209 c 0.65079,0.6682 0.637352,0.6203 0.295992,1.49011 -0.307692,0.7854 -0.671182,1.55169 -0.997482,2.27019 0.726681,-0.4498 1.423562,-0.94199 2.08897,-1.4728 l 0.408602,-0.94239 c 0.433559,-1.0038 0.477358,-0.92151 -0.20651,-1.7683 -0.787421,-0.97411 -1.635512,-2.01841 -2.432791,-2.9806 -1.94011,-2.33961 -4.02613,-1.85341 -6.482771,-0.1925 -1.85548,1.253 -3.434289,2.8439 -4.698539,4.3318 -0.4214,-1.63361 -0.40853,-3.40161 -0.13063,-5.17111 0.53636,-3.4213 1.997839,-6.3196 5.690161,-7.3615 1.764998,-0.4984 3.56154,-0.5082 5.281609,0.1736 0.81307,0.3209 1.353551,0.8253 0.940221,1.6532 2.02592,0.15111 3.806759,-0.8377 5.374468,-2.8084 3.026921,0.2831 2.341081,-2.5243 4.04541,-3.8939 -0.802539,-1.1312 -0.97764,-2.075 -0.906399,-3.5288 0.1763,-3.624 -2.565841,-4.242 -5.504039,-5.0816 -1.976282,-0.5649 -3.757631,-1.3237 -5.283362,-2.3359 -0.71324,-4.3107 -3.24925,-5.9885 -7.795389,-4.6823 -2.54077,-1.2126 -5.781831,-2.2481 -9.72103,-0.6897 -2.55351,1.0091 -5.67904,4.6729 -8.50628,4.7344 -0.39285,0.4719 -0.765821,0.9612 -1.118351,1.467 l 1.980411,1.2486 c -0.15291,0.2718 -0.29259,0.5474 -0.42496,0.8272 h -0.008 l -0.18387,0.3586 -2.33808,-0.9136 c -0.27711,0.4798 -0.537,0.9733 -0.77808,1.4758 l 2.62881,0.8082 c -0.18008,0.5713 -0.32203,1.1493 -0.42722,1.7299 v 0 l -2.966179,-0.7283 c -0.20992,0.5649 -0.39574,1.1416 -0.55739,1.7276 l 3.25743,0.46331 c -0.0389,0.45949 0.0302,0.9178 -0.008,1.37529 l -3.68473,0.091 c -0.11288,0.6307 -0.19744,1.2717 -0.25408,1.9208 l 4.00449,-0.4881 c 0.0695,0.4677 0.19292,0.8815 0.26164,1.3501 l -4.34537,1.3137 c 0.008,0.6731 0.0517,1.3402 0.12119,1.9979 l 4.68749,-1.672 c 0.1476,0.4469 0.31486,0.8822 0.50245,1.304 l -4.84495,2.5416 c 0.13666,0.6444 0.30165,1.2779 0.49548,1.8993 l 5.1894,-2.8478 c 0.26088,0.4203 0.54283,0.8178 0.84576,1.1919 l -5.32422,3.607 c 0.25182,0.5983 0.52886,1.1831 0.83229,1.7518 2.2413,-1.5703 5.18414,-3.6278 7.0717,-4.9473 -2.95342,-3.1415 -3.65553,-6.2833 -3.54286,-9.4239 2.61424,3.2977 7.67291,2.5524 9.782239,-0.7586 1.836812,-2.887 0.146482,-6.2599 -3.238759,-6.6318 -1.93776,-0.2151 -3.82357,0.8449 -3.90704,3.2767 -0.0792,2.312 2.863431,3.6557 4.12711,2.0206 1.39092,-1.8561 -0.887809,-3.3315 -1.95003,-1.6381 -0.61637,-0.9846 0.57489,-2.1142 1.77254,-1.9337 1.357061,0.2038 2.359832,1.7309 2.115862,3.0228 -0.695182,3.7109 -6.424972,3.9087 -7.612742,0.3624 -0.84345,-2.5184 0.32732,-4.2578 2.12801,-5.8268 -0.61753,0.1359 -1.81639,0.2227 -2.44268,-0.3284 2.69246,-0.1134 5.086059,-3.2404 7.281342,-4.1685 1.059278,-0.4485 2.183479,-0.7502 3.663029,-0.7041 1.922589,0.061 3.92457,0.7128 3.13836,2.3827 2.04284,-0.4791 5.7316,-3.5191 7.794869,0.2416 -4.30452,-2.6523 -5.81565,1.8409 -8.435729,0.8445 l -0.242761,0.3059 c 0.547471,0.9117 1.5351,1.47 3.77285,0.5505 -0.159319,3.6016 3.95259,3.984 5.138571,0.9943 0.640271,0.4829 1.298689,0.948 1.987989,1.3478 2.815611,1.631 8.962811,1.9553 9.454862,4.7324 -1.299292,-0.8212 -3.117342,-0.7943 -3.51255,0.9737 -0.128731,0.5761 -0.0021,1.1791 0.352999,1.6442 0.69633,0.9128 2.552959,0.7539 2.493989,-0.355 -0.490829,0.3134 -1.045848,0.08 -1.197089,-0.3661 -0.21142,-0.6188 0.299011,-1.2077 0.99228,-1.116 0.376399,0.049 0.72376,0.3208 0.97181,0.675 -0.0936,1.2451 0.236331,2.1322 0.4675,2.5326 -2.5664,0.6497 -4.93902,0.3208 -7.125391,-0.7902 -1.586968,-0.8095 -3.316409,-2.0353 -4.845658,-3.2404 -1.647061,-1.2969 -4.79425,-5.4014 -7.512352,-2.7836 0.857372,-0.1926 2.66554,-0.057 3.68703,1.1292 0.960101,1.1137 1.11244,2.9546 -0.271058,3.7942 -0.942642,0.5711 -2.31716,0.1435 -2.34052,-1.0401 -0.01889,-0.9016 1.090319,-1.7525 1.790708,-0.17 0.67238,-1.077 -0.119298,-1.9238 -1.11243,-2.1457 -1.275998,-0.2833 -2.307839,0.4525 -2.472439,1.7868 -0.11893,0.9687 0.4371,1.9907 1.40257,2.8349 1.092589,0.9559 2.61476,1.5025 3.952549,1.356 -0.482669,-0.6247 -0.58076,-1.2488 -0.296349,-1.8729 2.93407,2.4626 6.995239,4.6241 10.80833,5.1107 -0.602909,1.0937 -1.312641,1.2497 -2.24594,1.3467 -0.314859,-2.0526 -4.9349,-2.0307 -7.350741,-1.7868 -1.121759,0.1132 -2.244738,0.1774 -3.367149,0.042 -2.21326,-0.3848 -3.42438,-1.5997 -4.155101,-3.0331 l -0.98058,0.601 c 0.805442,2.0236 2.153732,3.3171 4.043021,4.393 -0.41143,0.4281 -0.73483,0.8853 -0.97351,1.315 l -3.143052,-1.8296 c -0.370732,0.5425 -0.7004,1.0998 -0.992841,1.6713 l 3.27851,1.6828 c -0.22425,0.4552 -0.392861,0.894 -0.45588,1.1824 -1.210511,-0.50029 -2.31711,-0.8604 -3.511359,-1.32479 -0.221621,0.57309 -0.412012,1.15829 -0.573741,1.75329 l 3.685299,1.228 c -0.13176,0.3511 -0.237469,0.7827 -0.31826,1.297 l -3.733278,-0.91819 c -0.123092,0.66179 -0.218612,1.33229 -0.288822,2.01069 1.3208,0.1661 2.641081,0.28321 3.961961,0.46481 -0.01889,1.79589 0.1344,3.4276 0.6449,5.22229 0.472819,0.068 0.945539,0.136 1.41718,0.2039 1.533901,-1.9843 3.340881,-3.9362 5.28393,-4.98599 0.0114,0.39449 0.14006,0.8846 0.301649,1.2202 -2.06797,1.64819 -3.734369,3.3113 -5.132829,6.81859 -1.068049,0.064 -2.090071,0 -3.08057,-0.1812 l -0.405062,1.1416 c 0.977631,0.13601 1.975721,0.2077 2.991282,0.2077 0.605269,0 1.204679,-0.038 1.797709,-0.075 0.598201,-2.71 2.179391,-4.94839 4.428241,-7.0935 0.50718,0.48101 1.196001,0.77741 1.955329,0.77741 0.24992,0 0.491432,-0.038 0.721392,-0.091 0.1461,0.1171 0.292208,0.2454 0.43779,0.3738 0.548658,0.4851 0.614018,0.3827 0.289938,1.0412 -0.124579,0.253 -0.250298,0.5074 -0.375269,0.7611 z m -4.399111,-28.921 c -0.639119,0 -1.156232,-0.512 -1.156232,-1.1435 0,-0.6317 0.517113,-1.144 1.156232,-1.144 0.639059,0 1.15741,0.5123 1.15741,1.144 0,0.6315 -0.518351,1.1435 -1.15741,1.1435 z m 1.128229,6.8462 c 0.0472,-0.3247 0.12193,-0.629 0.214442,-0.9249 0.553839,0.53 1.169069,1.039 1.833298,1.5226 -0.708589,0.2528 -1.425308,0.3397 -2.0989,0.43141 -0.01889,-0.36231 0.008,-0.70521 0.0517,-1.02911 z m 8.955222,5.8741 c -0.186121,-0.32469 -0.329581,-0.6536 -0.438362,-0.9813 -0.10868,-0.3285 -0.186118,-0.6583 -0.242369,-0.9868 -0.563239,0.5716 -1.144571,1.0114 -1.74168,1.3406 -0.148749,-0.3775 -0.252571,-0.74 -0.325811,-1.0907 -0.0725,-0.3511 -0.11439,-0.6935 -0.133649,-1.0292 -0.628599,0.4168 -1.26361,0.7079 -1.90096,0.9106 -0.1016,-0.3736 -0.165351,-0.7297 -0.195191,-1.0687 -0.02641,-0.3399 -0.0302,-0.6672 -0.008,-0.9854 -0.72608,0.26421 -1.432851,0.4164 -2.126311,0.4915 -0.0227,-0.3586 -7.93e-4,-0.6765 0.0435,-0.9763 0.0461,-0.2982 0.120439,-0.5825 0.204629,-0.8721 1.48019,1.1085 3.178572,2.1765 5.057481,2.8523 1.824559,0.65621 3.825931,0.7418 5.804559,0.5335 -0.232568,0.3511 -0.477999,0.6738 -0.72781,0.9812 -0.252579,0.31331 -0.51421,0.6082 -0.782709,0.888 -0.218969,-0.2757 -0.393351,-0.5646 -0.530519,-0.8613 -0.13893,-0.2982 -0.243131,-0.6002 -0.326181,-0.91019 -0.512429,0.68529 -1.058161,1.26589 -1.627261,1.76429 z m -6.7052,13.0382 c -0.93794,0 -1.699012,-0.7525 -1.699012,-1.6793 0,-0.9281 0.761072,-1.6805 1.699012,-1.6805 0.93795,0 1.698498,0.7524 1.698498,1.6805 0,0.9268 -0.760548,1.6793 -1.698498,1.6793 z"
       id="path485-3-3-1"
       inkscape:export-xdpi="41.82"
       inkscape:export-ydpi="41.82" />
    <g
       id="g4356"
       transform="translate(117.52099,-766.46949)"
       inkscape:export-xdpi="41.82"
       inkscape:export-ydpi="41.82">
      <rect
         inkscape:export-ydpi="34.856476"
         inkscape:export-xdpi="34.856476"
         y="1029.916"
         x="-53.746613"
         height="22.358465"
         width="78.617867"
         id="rect1050-2-3-4-8-7-6-0-9-1-8"
         style="opacity:1;fill:#e41f51;fill-opacity:1;stroke:none;stroke-width:0.00981532;stroke-miterlimit:4;stroke-dasharray:none" />
      <flowRoot
         inkscape:export-ydpi="34.856476"
         inkscape:export-xdpi="34.856476"
         transform="matrix(2.1520662,0,0,2.1520662,-100.17544,775.58954)"
         style="font-style:normal;font-weight:normal;font-size:10.58333302px;line-height:1.25;font-family:sans-serif;letter-spacing:0px;word-spacing:0px;fill:#ffffff;fill-opacity:1;stroke:none;stroke-width:0.26458332"
         id="flowRoot10-7-8-5-3-8-9-3-8-94-1-7-8"
         xml:space="preserve"><flowRegion
           style="fill:#ffffff;fill-opacity:1;stroke-width:0.26458332"
           id="flowRegion12-8-09-4-7-4-3-7-4-5-3-9-7"><rect
             style="fill:#ffffff;fill-opacity:1;stroke-width:0.07000434"
             y="117.08333"
             x="23.434523"
             height="62.744045"
             width="159.50595"
             id="rect14-7-7-9-9-8-1-1-88-4-4-3-0" /></flowRegion><flowPara
           style="font-style:normal;font-variant:normal;font-weight:bold;font-stretch:normal;font-family:'Zilla Slab';-inkscape-font-specification:'Zilla Slab Bold';letter-spacing:-0.06147193px;fill:#ffffff;fill-opacity:1;stroke-width:0.26458332"
           id="flowPara18-1-9-8-8-1-4-2-3-6-5-62-5">méxico</flowPara></flowRoot>    </g>
    <g
       style="stroke:none"
       id="g1252-6-6-8-2-87-6-5-1-2"
       transform="matrix(0.03929184,0,0,0.03929184,63.774301,239.29003)"
       inkscape:export-xdpi="41.82"
       inkscape:export-ydpi="41.82">
      <rect
         id="rect1248-7-8-9-1-52-3-7-2-7"
         height="571.90002"
         width="2000"
         y="0"
         x="0" />
      <path
         id="path1250-0-5-6-5-4-99-3-5-9"
         d="m 1910.2,410.5 c -3.9,1.1 -7.2,1.7 -10.5,1.7 -11.7,0 -17.2,-5 -17.2,-19.4 V 284.1 c 0,-57.1 -45.5,-84.9 -99.3,-84.9 -41.1,0 -63.2,5 -107.1,22.7 l -9.8,57.6 57.1,6.1 8.1,-28.2 c 11.7,-6.1 23.3,-7.2 38.3,-7.2 40.5,0 41.1,30.5 41.1,56 v 8.3 c -12.8,-1.7 -27.2,-2.2 -41.1,-2.2 -57.1,0 -116.5,14.4 -116.5,76 0,52.1 41,71.6 77.1,71.6 40.5,0 66,-24.4 80.4,-49.9 3.3,30.5 21.6,49.9 54.9,49.9 15.5,0 31.6,-4.4 44.9,-11.7 z m -153.6,-1.6 c -21.6,0 -29.4,-12.8 -29.4,-28.9 0,-27.2 22.2,-34.4 47.7,-34.4 11.6,0 24.4,1.7 36.1,3.3 -1.7,41.7 -28.9,60 -54.4,60 z M 1660.5,72.7 1552.3,454.4 h -70.5 L 1590,72.7 Z m -145.3,0 -108.2,381.7 h -70.4 L 1444.8,72.7 Z m -300.4,131.5 h 74.9 V 294 h -74.9 z m 0,160.3 h 74.9 v 89.9 h -74.9 z m -109,-3.3 56.6,5.5 -15.5,87.7 H 928.3 l -7.2,-37.7 137.6,-158.1 h -78.2 l -11.1,38.8 -51.6,-5.6 8.9,-87.7 h 219.7 l 5.6,37.7 -138.8,158.2 h 81 z m -358.5,-162 c -89.9,0 -134.3,60.5 -134.3,133.7 0,79.9 53.3,127 130.4,127 79.9,0 137.6,-50.5 137.6,-130.4 0,-69.9 -43.9,-130.3 -133.7,-130.3 z M 745.6,405 c -38.8,0 -58.8,-33.3 -58.8,-76.6 0,-47.2 22.7,-74.3 59.4,-74.3 33.8,0 61,22.7 61,73.2 0,47.7 -24.4,77.7 -61.6,77.7 z m -197,-5 h 33.3 v 54.4 H 477 V 313.5 c 0,-43.3 -14.4,-59.9 -42.7,-59.9 -34.4,0 -48.3,24.4 -48.3,59.4 v 87 h 33.3 v 54.4 H 314.5 V 313.5 c 0,-43.3 -14.4,-59.9 -42.7,-59.9 -34.4,0 -48.3,24.4 -48.3,59.4 v 87 h 47.7 v 54.4 H 118.7 V 400 H 152 V 258.5 h -33.3 v -54.4 h 104.8 v 37.7 c 15,-26.6 41.1,-42.7 76,-42.7 36.1,0 69.3,17.2 81.6,53.8 13.9,-33.3 42.2,-53.8 81.6,-53.8 44.9,0 86,27.2 86,86.5 V 400 Z"
         class="st0"
         inkscape:connector-curvature="0"
         style="fill:#ffffff" />
    </g>
  </g>
  <g
     transform="translate(0,-227.94692)"
     id="g845"
     inkscape:groupmode="layer"
     inkscape:label="curvas"
     sodipodi:insensitive="true">
    <rect
       inkscape:export-ydpi="41.82"
       inkscape:export-xdpi="41.82"
       y="239.28937"
       x="11.652498"
       height="46.561642"
       width="49.753452"
       id="rect823"
       style="opacity:1;fill:#ffffff;fill-opacity:1;stroke:none;stroke-width:0.10035282;stroke-miterlimit:4;stroke-dasharray:none;stroke-opacity:1" />
    <path
       inkscape:export-ydpi="41.82"
       inkscape:export-xdpi="41.82"
       id="path825"
       d="m 45.93785,278.64425 c 0.41329,0.2266 0.82649,0.44961 1.239668,0.6735 0.223502,-0.4972 0.447112,-0.99319 0.67065,-1.4897 0.32807,-0.7309 0.32807,-0.65539 -0.229539,-1.2399 -0.225769,-0.2378 -0.452361,-0.4737 -0.6847,-0.72109 l -0.0891,-0.10901 c 0.25975,-0.25299 0.46989,-0.5497 0.615842,-0.88349 l 1.230868,1.10209 c 0.65079,0.6682 0.637352,0.6203 0.295992,1.49011 -0.307692,0.7854 -0.671182,1.55169 -0.997482,2.27019 0.726681,-0.4498 1.423562,-0.94199 2.08897,-1.4728 l 0.408602,-0.94239 c 0.433559,-1.0038 0.477358,-0.92151 -0.20651,-1.7683 -0.787421,-0.97411 -1.635512,-2.01841 -2.432791,-2.9806 -1.94011,-2.33961 -4.02613,-1.85341 -6.482771,-0.1925 -1.85548,1.253 -3.434289,2.8439 -4.698539,4.3318 -0.4214,-1.63361 -0.40853,-3.40161 -0.13063,-5.17111 0.53636,-3.4213 1.997839,-6.3196 5.690161,-7.3615 1.764998,-0.4984 3.56154,-0.5082 5.281609,0.1736 0.81307,0.3209 1.353551,0.8253 0.940221,1.6532 2.02592,0.15111 3.806759,-0.8377 5.374468,-2.8084 3.026921,0.2831 2.341081,-2.5243 4.04541,-3.8939 -0.802539,-1.1312 -0.97764,-2.075 -0.906399,-3.5288 0.1763,-3.624 -2.565841,-4.242 -5.504039,-5.0816 -1.976282,-0.5649 -3.757631,-1.3237 -5.283362,-2.3359 -0.71324,-4.3107 -3.24925,-5.9885 -7.795389,-4.6823 -2.54077,-1.2126 -5.781831,-2.2481 -9.72103,-0.6897 -2.55351,1.0091 -5.67904,4.6729 -8.50628,4.7344 -0.39285,0.4719 -0.765821,0.9612 -1.118351,1.467 l 1.980411,1.2486 c -0.15291,0.2718 -0.29259,0.5474 -0.42496,0.8272 h -0.008 l -0.18387,0.3586 -2.33808,-0.9136 c -0.27711,0.4798 -0.537,0.9733 -0.77808,1.4758 l 2.62881,0.8082 c -0.18008,0.5713 -0.32203,1.1493 -0.42722,1.7299 v 0 l -2.966179,-0.7283 c -0.20992,0.5649 -0.39574,1.1416 -0.55739,1.7276 l 3.25743,0.46331 c -0.0389,0.45949 0.0302,0.9178 -0.008,1.37529 l -3.68473,0.091 c -0.11288,0.6307 -0.19744,1.2717 -0.25408,1.9208 l 4.00449,-0.4881 c 0.0695,0.4677 0.19292,0.8815 0.26164,1.3501 l -4.34537,1.3137 c 0.008,0.6731 0.0517,1.3402 0.12119,1.9979 l 4.68749,-1.672 c 0.1476,0.4469 0.31486,0.8822 0.50245,1.304 l -4.84495,2.5416 c 0.13666,0.6444 0.30165,1.2779 0.49548,1.8993 l 5.1894,-2.8478 c 0.26088,0.4203 0.54283,0.8178 0.84576,1.1919 l -5.32422,3.607 c 0.25182,0.5983 0.52886,1.1831 0.83229,1.7518 2.2413,-1.5703 5.18414,-3.6278 7.0717,-4.9473 -2.95342,-3.1415 -3.65553,-6.2833 -3.54286,-9.4239 2.61424,3.2977 7.67291,2.5524 9.782239,-0.7586 1.836812,-2.887 0.146482,-6.2599 -3.238759,-6.6318 -1.93776,-0.2151 -3.82357,0.8449 -3.90704,3.2767 -0.0792,2.312 2.863431,3.6557 4.12711,2.0206 1.39092,-1.8561 -0.887809,-3.3315 -1.95003,-1.6381 -0.61637,-0.9846 0.57489,-2.1142 1.77254,-1.9337 1.357061,0.2038 2.359832,1.7309 2.115862,3.0228 -0.695182,3.7109 -6.424972,3.9087 -7.612742,0.3624 -0.84345,-2.5184 0.32732,-4.2578 2.12801,-5.8268 -0.61753,0.1359 -1.81639,0.2227 -2.44268,-0.3284 2.69246,-0.1134 5.086059,-3.2404 7.281342,-4.1685 1.059278,-0.4485 2.183479,-0.7502 3.663029,-0.7041 1.922589,0.061 3.92457,0.7128 3.13836,2.3827 2.04284,-0.4791 5.7316,-3.5191 7.794869,0.2416 -4.30452,-2.6523 -5.81565,1.8409 -8.435729,0.8445 l -0.242761,0.3059 c 0.547471,0.9117 1.5351,1.47 3.77285,0.5505 -0.159319,3.6016 3.95259,3.984 5.138571,0.9943 0.640271,0.4829 1.298689,0.948 1.987989,1.3478 2.815611,1.631 8.962811,1.9553 9.454862,4.7324 -1.299292,-0.8212 -3.117342,-0.7943 -3.51255,0.9737 -0.128731,0.5761 -0.0021,1.1791 0.352999,1.6442 0.69633,0.9128 2.552959,0.7539 2.493989,-0.355 -0.490829,0.3134 -1.045848,0.08 -1.197089,-0.3661 -0.21142,-0.6188 0.299011,-1.2077 0.99228,-1.116 0.376399,0.049 0.72376,0.3208 0.97181,0.675 -0.0936,1.2451 0.236331,2.1322 0.4675,2.5326 -2.5664,0.6497 -4.93902,0.3208 -7.125391,-0.7902 -1.586968,-0.8095 -3.316409,-2.0353 -4.845658,-3.2404 -1.647061,-1.2969 -4.79425,-5.4014 -7.512352,-2.7836 0.857372,-0.1926 2.66554,-0.057 3.68703,1.1292 0.960101,1.1137 1.11244,2.9546 -0.271058,3.7942 -0.942642,0.5711 -2.31716,0.1435 -2.34052,-1.0401 -0.01889,-0.9016 1.090319,-1.7525 1.790708,-0.17 0.67238,-1.077 -0.119298,-1.9238 -1.11243,-2.1457 -1.275998,-0.2833 -2.307839,0.4525 -2.472439,1.7868 -0.11893,0.9687 0.4371,1.9907 1.40257,2.8349 1.092589,0.9559 2.61476,1.5025 3.952549,1.356 -0.482669,-0.6247 -0.58076,-1.2488 -0.296349,-1.8729 2.93407,2.4626 6.995239,4.6241 10.80833,5.1107 -0.602909,1.0937 -1.312641,1.2497 -2.24594,1.3467 -0.314859,-2.0526 -4.9349,-2.0307 -7.350741,-1.7868 -1.121759,0.1132 -2.244738,0.1774 -3.367149,0.042 -2.21326,-0.3848 -3.42438,-1.5997 -4.155101,-3.0331 l -0.98058,0.601 c 0.805442,2.0236 2.153732,3.3171 4.043021,4.393 -0.41143,0.4281 -0.73483,0.8853 -0.97351,1.315 l -3.143052,-1.8296 c -0.370732,0.5425 -0.7004,1.0998 -0.992841,1.6713 l 3.27851,1.6828 c -0.22425,0.4552 -0.392861,0.894 -0.45588,1.1824 -1.210511,-0.50029 -2.31711,-0.8604 -3.511359,-1.32479 -0.221621,0.57309 -0.412012,1.15829 -0.573741,1.75329 l 3.685299,1.228 c -0.13176,0.3511 -0.237469,0.7827 -0.31826,1.297 l -3.733278,-0.91819 c -0.123092,0.66179 -0.218612,1.33229 -0.288822,2.01069 1.3208,0.1661 2.641081,0.28321 3.961961,0.46481 -0.01889,1.79589 0.1344,3.4276 0.6449,5.22229 0.472819,0.068 0.945539,0.136 1.41718,0.2039 1.533901,-1.9843 3.340881,-3.9362 5.28393,-4.98599 0.0114,0.39449 0.14006,0.8846 0.301649,1.2202 -2.06797,1.64819 -3.734369,3.3113 -5.132829,6.81859 -1.068049,0.064 -2.090071,0 -3.08057,-0.1812 l -0.405062,1.1416 c 0.977631,0.13601 1.975721,0.2077 2.991282,0.2077 0.605269,0 1.204679,-0.038 1.797709,-0.075 0.598201,-2.71 2.179391,-4.94839 4.428241,-7.0935 0.50718,0.48101 1.196001,0.77741 1.955329,0.77741 0.24992,0 0.491432,-0.038 0.721392,-0.091 0.1461,0.1171 0.292208,0.2454 0.43779,0.3738 0.548658,0.4851 0.614018,0.3827 0.289938,1.0412 -0.124579,0.253 -0.250298,0.5074 -0.375269,0.7611 z m -4.399111,-28.921 c -0.639119,0 -1.156232,-0.512 -1.156232,-1.1435 0,-0.6317 0.517113,-1.144 1.156232,-1.144 0.639059,0 1.15741,0.5123 1.15741,1.144 0,0.6315 -0.518351,1.1435 -1.15741,1.1435 z m 1.128229,6.8462 c 0.0472,-0.3247 0.12193,-0.629 0.214442,-0.9249 0.553839,0.53 1.169069,1.039 1.833298,1.5226 -0.708589,0.2528 -1.425308,0.3397 -2.0989,0.43141 -0.01889,-0.36231 0.008,-0.70521 0.0517,-1.02911 z m 8.955222,5.8741 c -0.186121,-0.32469 -0.329581,-0.6536 -0.438362,-0.9813 -0.10868,-0.3285 -0.186118,-0.6583 -0.242369,-0.9868 -0.563239,0.5716 -1.144571,1.0114 -1.74168,1.3406 -0.148749,-0.3775 -0.252571,-0.74 -0.325811,-1.0907 -0.0725,-0.3511 -0.11439,-0.6935 -0.133649,-1.0292 -0.628599,0.4168 -1.26361,0.7079 -1.90096,0.9106 -0.1016,-0.3736 -0.165351,-0.7297 -0.195191,-1.0687 -0.02641,-0.3399 -0.0302,-0.6672 -0.008,-0.9854 -0.72608,0.26421 -1.432851,0.4164 -2.126311,0.4915 -0.0227,-0.3586 -7.93e-4,-0.6765 0.0435,-0.9763 0.0461,-0.2982 0.120439,-0.5825 0.204629,-0.8721 1.48019,1.1085 3.178572,2.1765 5.057481,2.8523 1.824559,0.65621 3.825931,0.7418 5.804559,0.5335 -0.232568,0.3511 -0.477999,0.6738 -0.72781,0.9812 -0.252579,0.31331 -0.51421,0.6082 -0.782709,0.888 -0.218969,-0.2757 -0.393351,-0.5646 -0.530519,-0.8613 -0.13893,-0.2982 -0.243131,-0.6002 -0.326181,-0.91019 -0.512429,0.68529 -1.058161,1.26589 -1.627261,1.76429 z m -6.7052,13.0382 c -0.93794,0 -1.699012,-0.7525 -1.699012,-1.6793 0,-0.9281 0.761072,-1.6805 1.699012,-1.6805 0.93795,0 1.698498,0.7524 1.698498,1.6805 0,0.9268 -0.760548,1.6793 -1.698498,1.6793 z"
       inkscape:connector-curvature="0"
       style="fill:#e41f51;fill-opacity:1;stroke-width:0.58366728" />
    <g
       inkscape:export-ydpi="41.82"
       inkscape:export-xdpi="41.82"
       transform="translate(117.52099,-766.46949)"
       id="g837">
      <rect
         style="opacity:1;fill:#e41f51;fill-opacity:1;stroke:none;stroke-width:0.00981532;stroke-miterlimit:4;stroke-dasharray:none"
         id="rect827"
         width="78.617867"
         height="22.358465"
         x="-53.746613"
         y="1029.916"
         inkscape:export-xdpi="34.856476"
         inkscape:export-ydpi="34.856476" />
      <g
         aria-label="méxico"
         transform="matrix(2.1520662,0,0,2.1520662,-100.17544,775.58954)"
         style="font-style:normal;font-weight:normal;font-size:10.58333302px;line-height:1.25;font-family:sans-serif;letter-spacing:0px;word-spacing:0px;fill:#ffffff;fill-opacity:1;stroke:none;stroke-width:0.26458332"
         id="flowRoot835">
        <path
           d="m 32.577593,126.73598 v -1.02658 h -0.635 v -2.19075 c 0,-1.13242 -0.783166,-1.651 -1.640416,-1.651 -0.751417,0 -1.291167,0.39158 -1.55575,1.02658 -0.232833,-0.6985 -0.867833,-1.02658 -1.55575,-1.02658 -0.66675,0 -1.164167,0.30692 -1.449917,0.81492 v -0.71967 h -1.989666 v 1.03717 h 0.624416 v 2.70933 h -0.635 v 1.02658 h 2.910417 V 125.7094 H 25.74076 v -1.67217 c 0,-0.66675 0.264584,-1.13241 0.92075,-1.13241 0.53975,0 0.814917,0.3175 0.814917,1.143 v 2.68816 h 2.00025 v -1.02658 h -0.635 v -1.67217 c 0,-0.66675 0.264583,-1.13241 0.92075,-1.13241 0.53975,0 0.814917,0.3175 0.814917,1.143 v 2.68816 z"
           style="font-style:normal;font-variant:normal;font-weight:bold;font-stretch:normal;font-family:'Zilla Slab';-inkscape-font-specification:'Zilla Slab Bold';letter-spacing:-0.06147193px;fill:#ffffff;fill-opacity:1;stroke-width:0.26458332"
           id="path847"
           inkscape:connector-curvature="0" />
        <path
           d="m 37.204042,120.39657 -0.709083,-1.06892 -1.7145,1.51342 0.359833,0.51858 z m 0.34925,4.83658 -1.143,-0.21167 c -0.05292,0.28575 -0.254,0.74084 -0.98425,0.74084 -0.687917,0 -1.04775,-0.39159 -1.121833,-1.13242 h 3.132666 c 0.05292,-0.24342 0.07408,-0.47625 0.07408,-0.68792 -0.02117,-1.23825 -0.92075,-2.07433 -2.243667,-2.07433 -1.513417,0 -2.391833,1.10067 -2.391833,2.57175 0,1.59808 1.037166,2.40242 2.455333,2.40242 1.375833,0 2.159,-0.762 2.2225,-1.60867 z m -1.449917,-1.397 h -1.788583 c 0.08467,-0.59267 0.391583,-0.99483 0.9525,-0.99483 0.645583,0 0.899583,0.51858 0.836083,0.99483 z"
           style="font-style:normal;font-variant:normal;font-weight:bold;font-stretch:normal;font-family:'Zilla Slab';-inkscape-font-specification:'Zilla Slab Bold';letter-spacing:-0.06147193px;fill:#ffffff;fill-opacity:1;stroke-width:0.26458332"
           id="path849"
           inkscape:connector-curvature="0" />
        <path
           d="m 43.232452,126.73598 v -1.02658 h -0.465667 l -1.449916,-1.47108 1.301749,-1.24884 h 0.47625 v -1.02658 h -2.074333 v 1.02658 h 0.3175 l -0.687916,0.70909 -0.645584,-0.70909 h 0.328084 v -1.02658 h -2.413 v 1.02658 h 0.47625 l 1.439333,1.397 -1.312333,1.32292 h -0.656167 v 1.02658 h 2.233083 v -1.02658 h -0.306916 l 0.687916,-0.75142 0.6985,0.75142 h -0.34925 v 1.02658 z"
           style="font-style:normal;font-variant:normal;font-weight:bold;font-stretch:normal;font-family:'Zilla Slab';-inkscape-font-specification:'Zilla Slab Bold';letter-spacing:-0.06147193px;fill:#ffffff;fill-opacity:1;stroke-width:0.26458332"
           id="path851"
           inkscape:connector-curvature="0" />
        <path
           d="m 44.241053,121.11623 h 1.36525 v -1.41816 h -1.36525 z m 2.053167,5.61975 v -1.02658 h -0.635 v -3.7465 h -2.053167 v 1.03717 h 0.687917 v 2.70933 h -0.635 v 1.02658 z"
           style="font-style:normal;font-variant:normal;font-weight:bold;font-stretch:normal;font-family:'Zilla Slab';-inkscape-font-specification:'Zilla Slab Bold';letter-spacing:-0.06147193px;fill:#ffffff;fill-opacity:1;stroke-width:0.26458332"
           id="path853"
           inkscape:connector-curvature="0" />
        <path
           d="m 51.236845,124.95798 -1.143,-0.21166 c -0.09525,0.68791 -0.391583,1.016 -0.941916,1.016 -0.73025,0 -1.090084,-0.51859 -1.090084,-1.397 0,-1.00542 0.465667,-1.41817 1.04775,-1.41817 0.22225,0 0.465667,0.0529 0.719667,0.13758 l 0.15875,0.78317 1.090083,-0.11642 -0.211666,-1.44991 c -0.582084,-0.30692 -1.195917,-0.43392 -1.725084,-0.43392 -1.386416,0 -2.497666,0.86783 -2.497666,2.56117 0,1.60866 1.005416,2.413 2.38125,2.413 1.534583,0 2.116666,-1.016 2.211916,-1.88384 z"
           style="font-style:normal;font-variant:normal;font-weight:bold;font-stretch:normal;font-family:'Zilla Slab';-inkscape-font-specification:'Zilla Slab Bold';letter-spacing:-0.06147193px;fill:#ffffff;fill-opacity:1;stroke-width:0.26458332"
           id="path855"
           inkscape:connector-curvature="0" />
        <path
           d="m 56.664983,124.35473 c 0,-1.34408 -0.8255,-2.49766 -2.550584,-2.49766 -1.7145,0 -2.561166,1.15358 -2.561166,2.55058 0,1.53458 1.016,2.43417 2.487083,2.43417 1.524,0 2.624667,-0.97367 2.624667,-2.48709 z m -1.407584,-0.0423 c 0,0.91017 -0.465666,1.48167 -1.17475,1.48167 -0.740833,0 -1.121833,-0.64559 -1.121833,-1.4605 0,-0.89959 0.433917,-1.42875 1.132417,-1.42875 0.645583,0 1.164166,0.43391 1.164166,1.40758 z"
           style="font-style:normal;font-variant:normal;font-weight:bold;font-stretch:normal;font-family:'Zilla Slab';-inkscape-font-specification:'Zilla Slab Bold';letter-spacing:-0.06147193px;fill:#ffffff;fill-opacity:1;stroke-width:0.26458332"
           id="path857"
           inkscape:connector-curvature="0" />
      </g>
    </g>
    <g
       inkscape:export-ydpi="41.82"
       inkscape:export-xdpi="41.82"
       transform="matrix(0.03929184,0,0,0.03929184,63.774301,239.29003)"
       id="g843"
       style="stroke:none">
      <rect
         x="0"
         y="0"
         width="2000"
         height="571.90002"
         id="rect839" />
      <path
         style="fill:#ffffff"
         inkscape:connector-curvature="0"
         class="st0"
         d="m 1910.2,410.5 c -3.9,1.1 -7.2,1.7 -10.5,1.7 -11.7,0 -17.2,-5 -17.2,-19.4 V 284.1 c 0,-57.1 -45.5,-84.9 -99.3,-84.9 -41.1,0 -63.2,5 -107.1,22.7 l -9.8,57.6 57.1,6.1 8.1,-28.2 c 11.7,-6.1 23.3,-7.2 38.3,-7.2 40.5,0 41.1,30.5 41.1,56 v 8.3 c -12.8,-1.7 -27.2,-2.2 -41.1,-2.2 -57.1,0 -116.5,14.4 -116.5,76 0,52.1 41,71.6 77.1,71.6 40.5,0 66,-24.4 80.4,-49.9 3.3,30.5 21.6,49.9 54.9,49.9 15.5,0 31.6,-4.4 44.9,-11.7 z m -153.6,-1.6 c -21.6,0 -29.4,-12.8 -29.4,-28.9 0,-27.2 22.2,-34.4 47.7,-34.4 11.6,0 24.4,1.7 36.1,3.3 -1.7,41.7 -28.9,60 -54.4,60 z M 1660.5,72.7 1552.3,454.4 h -70.5 L 1590,72.7 Z m -145.3,0 -108.2,381.7 h -70.4 L 1444.8,72.7 Z m -300.4,131.5 h 74.9 V 294 h -74.9 z m 0,160.3 h 74.9 v 89.9 h -74.9 z m -109,-3.3 56.6,5.5 -15.5,87.7 H 928.3 l -7.2,-37.7 137.6,-158.1 h -78.2 l -11.1,38.8 -51.6,-5.6 8.9,-87.7 h 219.7 l 5.6,37.7 -138.8,158.2 h 81 z m -358.5,-162 c -89.9,0 -134.3,60.5 -134.3,133.7 0,79.9 53.3,127 130.4,127 79.9,0 137.6,-50.5 137.6,-130.4 0,-69.9 -43.9,-130.3 -133.7,-130.3 z M 745.6,405 c -38.8,0 -58.8,-33.3 -58.8,-76.6 0,-47.2 22.7,-74.3 59.4,-74.3 33.8,0 61,22.7 61,73.2 0,47.7 -24.4,77.7 -61.6,77.7 z m -197,-5 h 33.3 v 54.4 H 477 V 313.5 c 0,-43.3 -14.4,-59.9 -42.7,-59.9 -34.4,0 -48.3,24.4 -48.3,59.4 v 87 h 33.3 v 54.4 H 314.5 V 313.5 c 0,-43.3 -14.4,-59.9 -42.7,-59.9 -34.4,0 -48.3,24.4 -48.3,59.4 v 87 h 47.7 v 54.4 H 118.7 V 400 H 152 V 258.5 h -33.3 v -54.4 h 104.8 v 37.7 c 15,-26.6 41.1,-42.7 76,-42.7 36.1,0 69.3,17.2 81.6,53.8 13.9,-33.3 42.2,-53.8 81.6,-53.8 44.9,0 86,27.2 86,86.5 V 400 Z"
         id="path841" />
    </g>
  </g>
</svg>
