<?xml version="1.0" encoding="UTF-8" standalone="no"?>
<!-- Created with Inkscape (http://www.inkscape.org/) -->

<svg
   xmlns:dc="http://purl.org/dc/elements/1.1/"
   xmlns:cc="http://creativecommons.org/ns#"
   xmlns:rdf="http://www.w3.org/1999/02/22-rdf-syntax-ns#"
   xmlns:svg="http://www.w3.org/2000/svg"
   xmlns="http://www.w3.org/2000/svg"
   xmlns:sodipodi="http://sodipodi.sourceforge.net/DTD/sodipodi-0.dtd"
   xmlns:inkscape="http://www.inkscape.org/namespaces/inkscape"
   width="334.24799"
   height="109.376"
   viewBox="0 0 88.436445 28.939067"
   version="1.1"
   id="svg652"
   inkscape:version="0.92.3 (2405546, 2018-03-11)"
   sodipodi:docname="mozilla_mexico_logotipo_mini.svg">
  <defs
     id="defs646" />
  <sodipodi:namedview
     id="base"
     pagecolor="#ffffff"
     bordercolor="#666666"
     borderopacity="1.0"
     inkscape:pageopacity="0.0"
     inkscape:pageshadow="2"
     inkscape:zoom="0.98994949"
     inkscape:cx="217.04785"
     inkscape:cy="13.702305"
     inkscape:document-units="mm"
     inkscape:current-layer="g764"
     showgrid="false"
     units="px"
     inkscape:showpageshadow="false"
     inkscape:window-width="1366"
     inkscape:window-height="711"
     inkscape:window-x="0"
     inkscape:window-y="28"
     inkscape:window-maximized="1" />
  <metadata
     id="metadata649">
    <rdf:RDF>
      <cc:Work
         rdf:about="">
        <dc:format>image/svg+xml</dc:format>
        <dc:type
           rdf:resource="http://purl.org/dc/dcmitype/StillImage" />
        <dc:title></dc:title>
      </cc:Work>
    </rdf:RDF>
  </metadata>
  <g
     inkscape:label="Texto"
     inkscape:groupmode="layer"
     id="layer1"
     transform="translate(0,-268.06092)"
     sodipodi:insensitive="true"
     style="display:none">
    <g
       id="g4356-9-7-3"
       transform="matrix(0.65475689,0,0,0.65475689,-303.834,-395.43486)"
       inkscape:export-xdpi="41.82"
       inkscape:export-ydpi="41.82">
      <rect
         inkscape:export-ydpi="34.856476"
         inkscape:export-xdpi="34.856476"
         y="1024.4381"
         x="555.18011"
         height="22.358465"
         width="33.75177"
         id="rect1050-2-3-4-8-7-6-0-9-1-8-1-6-6"
         style="opacity:1;fill:#e41f51;fill-opacity:1;stroke:none;stroke-width:0.0064312;stroke-miterlimit:4;stroke-dasharray:none" />
    </g>
    <g
       style="stroke:none"
       id="g1252-6-6-8-2-87-6-5-1-2-5-4-62"
       transform="matrix(0.0257266,0,0,0.0257266,6.6632357,275.0985)"
       inkscape:export-xdpi="41.82"
       inkscape:export-ydpi="41.82">
      <rect
         id="rect1248-7-8-9-1-52-3-7-2-7-3-3-91"
         height="571.90002"
         width="2000"
         y="0"
         x="0" />
      <path
         id="path1250-0-5-6-5-4-99-3-5-9-2-3-2"
         d="m 1910.2,410.5 c -3.9,1.1 -7.2,1.7 -10.5,1.7 -11.7,0 -17.2,-5 -17.2,-19.4 V 284.1 c 0,-57.1 -45.5,-84.9 -99.3,-84.9 -41.1,0 -63.2,5 -107.1,22.7 l -9.8,57.6 57.1,6.1 8.1,-28.2 c 11.7,-6.1 23.3,-7.2 38.3,-7.2 40.5,0 41.1,30.5 41.1,56 v 8.3 c -12.8,-1.7 -27.2,-2.2 -41.1,-2.2 -57.1,0 -116.5,14.4 -116.5,76 0,52.1 41,71.6 77.1,71.6 40.5,0 66,-24.4 80.4,-49.9 3.3,30.5 21.6,49.9 54.9,49.9 15.5,0 31.6,-4.4 44.9,-11.7 z m -153.6,-1.6 c -21.6,0 -29.4,-12.8 -29.4,-28.9 0,-27.2 22.2,-34.4 47.7,-34.4 11.6,0 24.4,1.7 36.1,3.3 -1.7,41.7 -28.9,60 -54.4,60 z M 1660.5,72.7 1552.3,454.4 h -70.5 L 1590,72.7 Z m -145.3,0 -108.2,381.7 h -70.4 L 1444.8,72.7 Z m -300.4,131.5 h 74.9 V 294 h -74.9 z m 0,160.3 h 74.9 v 89.9 h -74.9 z m -109,-3.3 56.6,5.5 -15.5,87.7 H 928.3 l -7.2,-37.7 137.6,-158.1 h -78.2 l -11.1,38.8 -51.6,-5.6 8.9,-87.7 h 219.7 l 5.6,37.7 -138.8,158.2 h 81 z m -358.5,-162 c -89.9,0 -134.3,60.5 -134.3,133.7 0,79.9 53.3,127 130.4,127 79.9,0 137.6,-50.5 137.6,-130.4 0,-69.9 -43.9,-130.3 -133.7,-130.3 z M 745.6,405 c -38.8,0 -58.8,-33.3 -58.8,-76.6 0,-47.2 22.7,-74.3 59.4,-74.3 33.8,0 61,22.7 61,73.2 0,47.7 -24.4,77.7 -61.6,77.7 z m -197,-5 h 33.3 v 54.4 H 477 V 313.5 c 0,-43.3 -14.4,-59.9 -42.7,-59.9 -34.4,0 -48.3,24.4 -48.3,59.4 v 87 h 33.3 v 54.4 H 314.5 V 313.5 c 0,-43.3 -14.4,-59.9 -42.7,-59.9 -34.4,0 -48.3,24.4 -48.3,59.4 v 87 h 47.7 v 54.4 H 118.7 V 400 H 152 V 258.5 h -33.3 v -54.4 h 104.8 v 37.7 c 15,-26.6 41.1,-42.7 76,-42.7 36.1,0 69.3,17.2 81.6,53.8 13.9,-33.3 42.2,-53.8 81.6,-53.8 44.9,0 86,27.2 86,86.5 V 400 Z"
         class="st0"
         inkscape:connector-curvature="0"
         style="fill:#ffffff" />
    </g>
    <flowRoot
       inkscape:export-ydpi="34.856476"
       inkscape:export-xdpi="34.856476"
       transform="matrix(1.4090802,0,0,1.4090802,27.031758,108.80107)"
       style="font-style:normal;font-weight:normal;font-size:10.58333302px;line-height:1.25;font-family:sans-serif;letter-spacing:0px;word-spacing:0px;fill:#ffffff;fill-opacity:1;stroke:none;stroke-width:0.26458332"
       id="flowRoot10-7-8-5-3-8-9-3-8-94-1-7-8-6-8-7"
       xml:space="preserve"><flowRegion
         style="fill:#ffffff;fill-opacity:1;stroke-width:0.26458332"
         id="flowRegion12-8-09-4-7-4-3-7-4-5-3-9-7-2-2-5"><rect
           style="fill:#ffffff;fill-opacity:1;stroke-width:0.07000434"
           y="117.08333"
           x="23.434523"
           height="62.744045"
           width="159.50595"
           id="rect14-7-7-9-9-8-1-1-88-4-4-3-0-1-0-3" /></flowRegion><flowPara
         style="font-style:normal;font-variant:normal;font-weight:bold;font-stretch:normal;font-family:'Zilla Slab';-inkscape-font-specification:'Zilla Slab Bold';letter-spacing:0.19671018px;fill:#ffffff;fill-opacity:1;stroke-width:0.26458332"
         id="flowPara18-1-9-8-8-1-4-2-3-6-5-62-5-0-6-5">mx</flowPara></flowRoot>  </g>
  <g
     transform="translate(0,-268.06092)"
     id="g764"
     inkscape:groupmode="layer"
     inkscape:label="Curvas"
     style="display:inline">
    <g
       inkscape:export-ydpi="41.82"
       inkscape:export-xdpi="41.82"
       transform="matrix(0.65475689,0,0,0.65475689,-303.834,-395.43486)"
       id="g748">
      <rect
         style="opacity:1;fill:#e41f51;fill-opacity:1;stroke:none;stroke-width:0.0064312;stroke-miterlimit:4;stroke-dasharray:none"
         id="rect746"
         width="33.75177"
         height="22.358465"
         x="555.18011"
         y="1024.4381"
         inkscape:export-xdpi="34.856476"
         inkscape:export-ydpi="34.856476" />
    </g>
    <g
       inkscape:export-ydpi="41.82"
       inkscape:export-xdpi="41.82"
       transform="matrix(0.0257266,0,0,0.0257266,6.6632357,275.0985)"
       id="g754"
       style="stroke:none">
      <rect
         x="0"
         y="0"
         width="2000"
         height="571.90002"
         id="rect750" />
      <path
         style="fill:#ffffff"
         inkscape:connector-curvature="0"
         class="st0"
         d="m 1910.2,410.5 c -3.9,1.1 -7.2,1.7 -10.5,1.7 -11.7,0 -17.2,-5 -17.2,-19.4 V 284.1 c 0,-57.1 -45.5,-84.9 -99.3,-84.9 -41.1,0 -63.2,5 -107.1,22.7 l -9.8,57.6 57.1,6.1 8.1,-28.2 c 11.7,-6.1 23.3,-7.2 38.3,-7.2 40.5,0 41.1,30.5 41.1,56 v 8.3 c -12.8,-1.7 -27.2,-2.2 -41.1,-2.2 -57.1,0 -116.5,14.4 -116.5,76 0,52.1 41,71.6 77.1,71.6 40.5,0 66,-24.4 80.4,-49.9 3.3,30.5 21.6,49.9 54.9,49.9 15.5,0 31.6,-4.4 44.9,-11.7 z m -153.6,-1.6 c -21.6,0 -29.4,-12.8 -29.4,-28.9 0,-27.2 22.2,-34.4 47.7,-34.4 11.6,0 24.4,1.7 36.1,3.3 -1.7,41.7 -28.9,60 -54.4,60 z M 1660.5,72.7 1552.3,454.4 h -70.5 L 1590,72.7 Z m -145.3,0 -108.2,381.7 h -70.4 L 1444.8,72.7 Z m -300.4,131.5 h 74.9 V 294 h -74.9 z m 0,160.3 h 74.9 v 89.9 h -74.9 z m -109,-3.3 56.6,5.5 -15.5,87.7 H 928.3 l -7.2,-37.7 137.6,-158.1 h -78.2 l -11.1,38.8 -51.6,-5.6 8.9,-87.7 h 219.7 l 5.6,37.7 -138.8,158.2 h 81 z m -358.5,-162 c -89.9,0 -134.3,60.5 -134.3,133.7 0,79.9 53.3,127 130.4,127 79.9,0 137.6,-50.5 137.6,-130.4 0,-69.9 -43.9,-130.3 -133.7,-130.3 z M 745.6,405 c -38.8,0 -58.8,-33.3 -58.8,-76.6 0,-47.2 22.7,-74.3 59.4,-74.3 33.8,0 61,22.7 61,73.2 0,47.7 -24.4,77.7 -61.6,77.7 z m -197,-5 h 33.3 v 54.4 H 477 V 313.5 c 0,-43.3 -14.4,-59.9 -42.7,-59.9 -34.4,0 -48.3,24.4 -48.3,59.4 v 87 h 33.3 v 54.4 H 314.5 V 313.5 c 0,-43.3 -14.4,-59.9 -42.7,-59.9 -34.4,0 -48.3,24.4 -48.3,59.4 v 87 h 47.7 v 54.4 H 118.7 V 400 H 152 V 258.5 h -33.3 v -54.4 h 104.8 v 37.7 c 15,-26.6 41.1,-42.7 76,-42.7 36.1,0 69.3,17.2 81.6,53.8 13.9,-33.3 42.2,-53.8 81.6,-53.8 44.9,0 86,27.2 86,86.5 V 400 Z"
         id="path752" />
    </g>
    <g
       aria-label="mx"
       transform="matrix(1.4090802,0,0,1.4090802,27.031758,108.80107)"
       style="font-style:normal;font-weight:normal;font-size:10.58333302px;line-height:1.25;font-family:sans-serif;letter-spacing:0px;word-spacing:0px;fill:#ffffff;fill-opacity:1;stroke:none;stroke-width:0.26458332"
       id="flowRoot762">
      <path
         d="m 32.577593,126.73598 v -1.02658 h -0.635 v -2.19075 c 0,-1.13242 -0.783166,-1.651 -1.640416,-1.651 -0.751417,0 -1.291167,0.39158 -1.55575,1.02658 -0.232833,-0.6985 -0.867833,-1.02658 -1.55575,-1.02658 -0.66675,0 -1.164167,0.30692 -1.449917,0.81492 v -0.71967 h -1.989666 v 1.03717 h 0.624416 v 2.70933 h -0.635 v 1.02658 h 2.910417 V 125.7094 H 25.74076 v -1.67217 c 0,-0.66675 0.264584,-1.13241 0.92075,-1.13241 0.53975,0 0.814917,0.3175 0.814917,1.143 v 2.68816 h 2.00025 v -1.02658 h -0.635 v -1.67217 c 0,-0.66675 0.264583,-1.13241 0.92075,-1.13241 0.53975,0 0.814917,0.3175 0.814917,1.143 v 2.68816 z"
         style="font-style:normal;font-variant:normal;font-weight:bold;font-stretch:normal;font-family:'Zilla Slab';-inkscape-font-specification:'Zilla Slab Bold';letter-spacing:0.19671018px;fill:#ffffff;fill-opacity:1;stroke-width:0.26458332"
         id="path766" />
      <path
         d="m 38.446474,126.73598 v -1.02658 h -0.465666 l -1.449917,-1.47108 1.30175,-1.24884 h 0.47625 v -1.02658 h -2.074333 v 1.02658 h 0.3175 l -0.687917,0.70909 -0.645583,-0.70909 h 0.328083 v -1.02658 h -2.413 v 1.02658 h 0.47625 l 1.439334,1.397 -1.312334,1.32292 h -0.656166 v 1.02658 h 2.233083 v -1.02658 h -0.306917 l 0.687917,-0.75142 0.6985,0.75142 h -0.34925 v 1.02658 z"
         style="font-style:normal;font-variant:normal;font-weight:bold;font-stretch:normal;font-family:'Zilla Slab';-inkscape-font-specification:'Zilla Slab Bold';letter-spacing:0.19671018px;fill:#ffffff;fill-opacity:1;stroke-width:0.26458332"
         id="path768" />
    </g>
  </g>
</svg>
