<?xml version="1.0" encoding="UTF-8" standalone="no"?>
<!-- Created with Inkscape (http://www.inkscape.org/) -->

<svg
   xmlns:dc="http://purl.org/dc/elements/1.1/"
   xmlns:cc="http://creativecommons.org/ns#"
   xmlns:rdf="http://www.w3.org/1999/02/22-rdf-syntax-ns#"
   xmlns:svg="http://www.w3.org/2000/svg"
   xmlns="http://www.w3.org/2000/svg"
   xmlns:sodipodi="http://sodipodi.sourceforge.net/DTD/sodipodi-0.dtd"
   xmlns:inkscape="http://www.inkscape.org/namespaces/inkscape"
   width="300"
   height="300"
   viewBox="0 0 79.374999 79.375002"
   version="1.1"
   id="svg504"
   inkscape:version="0.92.3 (2405546, 2018-03-11)"
   sodipodi:docname="mozilla_mexico_isotipo.svg"
   inkscape:export-filename="/home/helix/Documentos/zittec/mozilla-mexico.org/fuentes/logotipo/mozilla_mexico_isotipo_64.png"
   inkscape:export-xdpi="20.48"
   inkscape:export-ydpi="20.48">
  <defs
     id="defs498" />
  <sodipodi:namedview
     id="base"
     pagecolor="#ffffff"
     bordercolor="#666666"
     borderopacity="1.0"
     inkscape:pageopacity="0.0"
     inkscape:pageshadow="2"
     inkscape:zoom="0.98994949"
     inkscape:cx="201.45022"
     inkscape:cy="146.16157"
     inkscape:document-units="mm"
     inkscape:current-layer="layer1"
     showgrid="false"
     units="px"
     inkscape:showpageshadow="false"
     inkscape:snap-global="false"
     inkscape:window-width="1366"
     inkscape:window-height="711"
     inkscape:window-x="0"
     inkscape:window-y="28"
     inkscape:window-maximized="1" />
  <metadata
     id="metadata501">
    <rdf:RDF>
      <cc:Work
         rdf:about="">
        <dc:format>image/svg+xml</dc:format>
        <dc:type
           rdf:resource="http://purl.org/dc/dcmitype/StillImage" />
        <dc:title />
      </cc:Work>
    </rdf:RDF>
  </metadata>
  <g
     inkscape:label="Capa 1"
     inkscape:groupmode="layer"
     id="layer1"
     transform="translate(0,-217.62498)">
    <path
       style="fill:#e41f51;fill-opacity:1;stroke-width:0.97186005"
       inkscape:connector-curvature="0"
       d="m 55.3538,284.07734 c 0.688171,0.37731 1.376201,0.74861 2.064171,1.1215 0.37216,-0.828 0.74449,-1.6539 1.11669,-2.48059 0.546258,-1.21701 0.546258,-1.0913 -0.38218,-2.06451 -0.375948,-0.39589 -0.75325,-0.78879 -1.140101,-1.2007 l -0.148359,-0.18149 c 0.43251,-0.42131 0.78241,-0.9153 1.025419,-1.4712 l 2.049499,1.8352 c 1.083652,1.1126 1.061252,1.03279 0.492861,2.48109 -0.512329,1.30781 -1.11756,2.58381 -1.660898,3.7801 1.20999,-0.74889 2.37036,-1.5685 3.47835,-2.4524 l 0.680328,-1.5691 c 0.72195,-1.6714 0.794862,-1.53439 -0.34385,-2.9444 -1.311118,-1.62199 -2.723261,-3.36079 -4.050829,-4.96289 -3.23044,-3.89571 -6.703851,-3.0862 -10.79438,-0.3205 -3.089551,2.08629 -5.718422,4.7352 -7.82351,7.21279 -0.70167,-2.7201 -0.680241,-5.66399 -0.217511,-8.61039 0.89309,-5.6968 3.32659,-10.5228 9.474642,-12.25751 2.938859,-0.8299 5.93027,-0.8463 8.794379,0.289 1.353831,0.5343 2.253769,1.3742 1.565519,2.75281 3.37335,0.2515 6.338618,-1.39491 8.948978,-4.67641 5.04014,0.4714 3.89812,-4.2031 6.73601,-6.48359 -1.33631,-1.88361 -1.62786,-3.45511 -1.50923,-5.87581 0.29355,-6.0343 -4.27236,-7.0633 -9.164757,-8.4614 -3.290681,-0.9406 -6.256782,-2.204 -8.797271,-3.8894 -1.187619,-7.1777 -5.410308,-9.9715 -12.980051,-7.7965 -4.230619,-2.0191 -9.62728,-3.7433 -16.186409,-1.1485 -4.25184,1.6804 -9.45614,7.7809 -14.16375,7.8833 -0.65413,0.7858 -1.27516,1.6005 -1.86215,2.4427 l 3.29756,2.079 c -0.254609,0.4525 -0.48719,0.9115 -0.7076,1.3774 h -0.0134 l -0.30616,0.5971 -3.8931095,-1.5212 c -0.46143,0.7989 -0.89417,1.6206 -1.2956,2.4573 l 4.3772195,1.3457 c -0.29984,0.9513 -0.53621,1.9137 -0.71136,2.8805 v 0 l -4.9389695,-1.2127 c -0.34955,0.9406 -0.65895,1.9008 -0.92812,2.8766 l 5.4239495,0.7714 c -0.0648,0.7652 0.0503,1.5283 -0.0134,2.29 l -6.1354185,0.1515 c -0.18798,1.0502 -0.32878,2.1175 -0.42309,3.1984 l 6.6678705,-0.8128 c 0.115729,0.77881 0.321229,1.4678 0.43566,2.24811 l -7.2354705,2.18739 c 0.0134,1.1207 0.0861,2.23161 0.20179,3.3267 l 7.8051295,-2.784 c 0.245771,0.7441 0.52427,1.4689 0.836621,2.1713 l -8.0673105,4.232 c 0.22757,1.07291 0.50229,2.1278 0.82503,3.1625 l 8.6408495,-4.74179 c 0.43439,0.69969 0.90386,1.36159 1.40827,1.9845 l -8.8653385,6.00599 c 0.419299,0.99621 0.8806,1.97 1.385859,2.9169 3.7319695,-2.6146 8.6320695,-6.0406 11.7750295,-8.2377 -4.91772,-5.2309 -6.086789,-10.4623 -5.89919,-15.6917 4.35295,5.491 12.7761,4.25 16.28834,-1.2631 3.058452,-4.8071 0.243901,-10.4232 -5.39284,-11.0425 -3.22655,-0.3582 -6.3666,1.4068 -6.50558,5.456 -0.13188,3.8497 4.76788,6.087 6.87202,3.3644 2.31601,-3.0906 -1.47829,-5.5472 -3.24698,-2.7276 -1.02631,-1.6394 0.95724,-3.5203 2.95144,-3.2197 2.25963,0.3393 3.92933,2.882 3.52311,5.0332 -1.15755,6.179 -10.69817,6.5083 -12.67593,0.6034 -1.40442,-4.1933 0.54502,-7.0895 3.54334,-9.7022 -1.02825,0.2263 -3.02445,0.3709 -4.06729,-0.5467 4.4832,-0.1889 8.46877,-5.3956 12.1241,-6.941 1.76381,-0.7468 3.6357,-1.2491 6.099292,-1.1724 3.201289,0.1016 6.534768,1.1869 5.225657,3.9674 3.401521,-0.7977 9.543661,-5.8596 12.979173,0.4023 -7.167411,-4.4163 -9.683581,3.0653 -14.046272,1.4062 l -0.404208,0.5094 c 0.911589,1.518 2.556078,2.4476 6.282139,0.9166 -0.26529,5.997 6.581431,6.6337 8.556209,1.6556 1.066111,0.8041 2.162422,1.5785 3.31017,2.2442 4.688272,2.7158 14.923928,3.2557 15.743218,7.8799 -2.16343,-1.3674 -5.190659,-1.3226 -5.848716,1.6212 -0.214331,0.9593 -0.004,1.9634 0.587787,2.7378 1.159449,1.5199 4.250899,1.2553 4.15271,-0.5911 -0.81726,0.5219 -1.74143,0.1333 -1.99324,-0.6096 -0.35205,-1.0303 0.49785,-2.0109 1.65223,-1.8582 0.62672,0.082 1.20513,0.5341 1.61814,1.1239 -0.15585,2.0732 0.39352,3.5503 0.77844,4.2171 -4.27329,1.0818 -8.223917,0.53411 -11.864448,-1.31579 -2.642439,-1.34791 -5.522101,-3.38901 -8.068451,-5.39561 -2.742509,-2.1594 -7.982878,-8.9938 -12.508769,-4.6349 1.427601,-0.3207 4.438361,-0.095 6.13924,1.8802 1.598661,1.8545 1.852319,4.9197 -0.451339,6.3177 -1.56958,0.9509 -3.858292,0.239 -3.89718,-1.7319 -0.0314,-1.5012 1.815489,-2.918 2.9817,-0.283 1.119569,-1.7933 -0.198651,-3.2033 -1.8523,-3.5728 -2.124652,-0.4717 -3.842771,0.7534 -4.11684,2.9752 -0.19803,1.6129 0.727808,3.3146 2.335408,4.7203 1.819262,1.59171 4.353812,2.50181 6.581363,2.2579 -0.803691,-1.0402 -0.967021,-2.0794 -0.493451,-3.1186 4.88551,4.10051 11.64772,7.69961 17.996879,8.50981 -1.003908,1.8211 -2.18568,2.0809 -3.73969,2.24239 -0.52429,-3.4178 -8.217069,-3.3813 -12.23968,-2.97509 -1.867839,0.18849 -3.737711,0.29529 -5.606619,0.07 -3.685281,-0.64071 -5.701911,-2.6636 -6.918621,-5.05041 l -1.63277,1.0008 c 1.341141,3.3695 3.58617,5.52321 6.73201,7.3147 -0.685059,0.71281 -1.22356,1.4741 -1.62098,2.1896 l -5.233469,-3.0465 c -0.617302,0.9034 -1.16623,1.8314 -1.653162,2.7829 l 5.459011,2.80201 c -0.373399,0.75799 -0.654151,1.48869 -0.759079,1.96889 -2.015612,-0.8331 -3.85821,-1.4327 -5.846731,-2.206 -0.36903,0.9543 -0.686049,1.92871 -0.955339,2.9194 l 6.13636,2.0448 c -0.21939,0.5846 -0.395402,1.3033 -0.529932,2.1596 l -6.216259,-1.5289 c -0.20495,1.102 -0.364,2.2184 -0.4809,3.34801 2.199251,0.2765 4.397631,0.47159 6.59703,0.77399 -0.0314,2.99021 0.22378,5.7072 1.073801,8.69551 0.7873,0.1133 1.574419,0.22639 2.35975,0.33959 2.554079,-3.304 5.56287,-6.5542 8.79824,-8.30219 0.019,0.65679 0.23322,1.4729 0.502259,2.03179 -3.443359,2.74441 -6.218061,5.51361 -8.546629,11.35351 -1.7784,0.1067 -3.48016,0 -5.129441,-0.30161 l -0.674449,1.90091 c 1.627838,0.2263 3.28975,0.34569 4.98075,0.34569 1.007829,0 2.005909,-0.063 2.99335,-0.12479 0.996058,-4.5124 3.628879,-8.2395 7.37344,-11.81141 0.84451,0.80091 1.991439,1.2945 3.255791,1.2945 0.416149,0 0.818298,-0.063 1.201208,-0.1515 0.24325,0.195 0.486532,0.40861 0.72894,0.6224 0.913561,0.80771 1.0224,0.6373 0.48278,1.7336 -0.207431,0.42131 -0.416758,0.8449 -0.624851,1.2674 z m -7.324921,-48.1561 c -1.064188,0 -1.925238,-0.8526 -1.925238,-1.9041 0,-1.0518 0.86105,-1.9048 1.925238,-1.9048 1.064091,0 1.927191,0.853 1.927191,1.9048 0,1.0515 -0.8631,1.9041 -1.927191,1.9041 z m 1.8786,11.3995 c 0.0786,-0.5406 0.203031,-1.0474 0.357061,-1.5401 0.922221,0.8826 1.946629,1.7301 3.052619,2.5353 -1.179848,0.4209 -2.373278,0.5657 -3.494868,0.7183 -0.0314,-0.6032 0.01339,-1.1742 0.0861,-1.7135 z m 14.911271,9.7809 c -0.30989,-0.54059 -0.548759,-1.0883 -0.729908,-1.634 -0.180962,-0.54689 -0.309902,-1.0961 -0.403551,-1.6431 -0.937871,0.9518 -1.905831,1.6841 -2.90005,2.2322 -0.2477,-0.62849 -0.420571,-1.232 -0.542531,-1.8161 -0.120719,-0.58449 -0.190468,-1.1547 -0.22252,-1.7137 -1.046678,0.6941 -2.10403,1.1788 -3.165279,1.5162 -0.169169,-0.62199 -0.275331,-1.21499 -0.325019,-1.7795 -0.044,-0.5659 -0.0503,-1.11089 -0.01339,-1.6407 -1.20899,0.43991 -2.385809,0.6933 -3.54048,0.8184 -0.0379,-0.5971 -0.0011,-1.1265 0.0724,-1.6256 0.0768,-0.4966 0.20053,-0.9699 0.34072,-1.4522 2.464659,1.8458 5.292608,3.6241 8.42119,4.74941 3.038059,1.09259 6.370506,1.23519 9.665126,0.88829 -0.38725,0.5847 -0.79591,1.122 -1.21189,1.6338 -0.42056,0.5217 -0.85619,1.0127 -1.30327,1.4786 -0.36461,-0.4591 -0.65496,-0.9401 -0.883389,-1.4342 -0.23132,-0.4965 -0.404831,-0.9994 -0.54311,-1.5155 -0.85324,1.141 -1.761941,2.1078 -2.709537,2.9377 z m -11.16476,21.70981 c -1.561759,0 -2.82902,-1.253 -2.82902,-2.79621 0,-1.54529 1.267261,-2.79819 2.82902,-2.79819 1.561751,0 2.828142,1.2529 2.828142,2.79819 0,1.54321 -1.266391,2.79621 -2.828142,2.79621 z"
       id="path485-3-3-1-9-1-9"
       inkscape:export-xdpi="41.82"
       inkscape:export-ydpi="41.82" />
  </g>
</svg>
