<?xml version="1.0" encoding="UTF-8" standalone="no"?>
<!-- Created with Inkscape (http://www.inkscape.org/) -->

<svg
   xmlns:dc="http://purl.org/dc/elements/1.1/"
   xmlns:cc="http://creativecommons.org/ns#"
   xmlns:rdf="http://www.w3.org/1999/02/22-rdf-syntax-ns#"
   xmlns:svg="http://www.w3.org/2000/svg"
   xmlns="http://www.w3.org/2000/svg"
   xmlns:sodipodi="http://sodipodi.sourceforge.net/DTD/sodipodi-0.dtd"
   xmlns:inkscape="http://www.inkscape.org/namespaces/inkscape"
   width="348.66901"
   height="348.66901"
   viewBox="0 0 92.252007 92.252011"
   version="1.1"
   id="svg514"
   inkscape:version="0.92.3 (2405546, 2018-03-11)"
   sodipodi:docname="mozilla_mexico_imagotipo_cuadrado.svg">
  <defs
     id="defs508" />
  <sodipodi:namedview
     id="base"
     pagecolor="#ffffff"
     bordercolor="#666666"
     borderopacity="1.0"
     inkscape:pageopacity="0.0"
     inkscape:pageshadow="2"
     inkscape:zoom="0.98994949"
     inkscape:cx="220.52595"
     inkscape:cy="170.26624"
     inkscape:document-units="mm"
     inkscape:current-layer="g595"
     showgrid="false"
     units="px"
     inkscape:showpageshadow="false"
     inkscape:window-width="1366"
     inkscape:window-height="711"
     inkscape:window-x="0"
     inkscape:window-y="28"
     inkscape:window-maximized="1" />
  <metadata
     id="metadata511">
    <rdf:RDF>
      <cc:Work
         rdf:about="">
        <dc:format>image/svg+xml</dc:format>
        <dc:type
           rdf:resource="http://purl.org/dc/dcmitype/StillImage" />
        <dc:title></dc:title>
      </cc:Work>
    </rdf:RDF>
  </metadata>
  <g
     inkscape:label="Texto"
     inkscape:groupmode="layer"
     id="layer1"
     transform="translate(0,-204.74797)"
     sodipodi:insensitive="true"
     style="display:none">
    <path
       style="fill:#e41f51;fill-opacity:1;stroke-width:0.97186005"
       inkscape:connector-curvature="0"
       d="m 62.968014,272.6873 c 0.68817,0.3773 1.3762,0.7486 2.06417,1.1215 0.37216,-0.828 0.74449,-1.6539 1.11669,-2.4806 0.54626,-1.217 0.54626,-1.0913 -0.38218,-2.0645 -0.37595,-0.3959 -0.75325,-0.7888 -1.1401,-1.2007 l -0.14836,-0.1815 c 0.43251,-0.4213 0.78241,-0.9153 1.02542,-1.4712 l 2.0495,1.8352 c 1.08365,1.1126 1.06125,1.0328 0.49286,2.4811 -0.51233,1.3078 -1.11756,2.5838 -1.6609,3.7801 1.20999,-0.7489 2.37036,-1.5685 3.47835,-2.4524 l 0.68033,-1.5691 c 0.72195,-1.6714 0.79486,-1.5344 -0.34385,-2.9444 -1.31112,-1.622 -2.72326,-3.3608 -4.05083,-4.9629 -3.23044,-3.8957 -6.703853,-3.0862 -10.794383,-0.3205 -3.08955,2.0863 -5.718418,4.7352 -7.823509,7.2128 -0.70167,-2.7201 -0.680239,-5.664 -0.217509,-8.6104 0.893088,-5.6968 3.32659,-10.5228 9.474639,-12.2575 2.93886,-0.8299 5.930272,-0.8463 8.794382,0.289 1.35383,0.5343 2.25377,1.3742 1.56552,2.7528 3.37335,0.2515 6.33862,-1.3949 8.94898,-4.6764 5.04014,0.4714 3.89812,-4.2031 6.73601,-6.4836 -1.33631,-1.8836 -1.62786,-3.4551 -1.50923,-5.8758 0.29355,-6.0343 -4.27236,-7.0633 -9.16476,-8.4614 -3.29068,-0.9406 -6.25678,-2.204 -8.79727,-3.8894 -1.187623,-7.1777 -5.410312,-9.9715 -12.980052,-7.7965 -4.230621,-2.0191 -9.62728,-3.7433 -16.186409,-1.1485 -4.251841,1.6804 -9.456141,7.7809 -14.163751,7.8833 -0.65413,0.7858 -1.27516,1.6005 -1.86215,2.4427 l 3.29756,2.079 c -0.25461,0.4525 -0.48719,0.9115 -0.7076,1.3774 h -0.0134 l -0.30616,0.5971 -3.89311,-1.5212 c -0.46143,0.7989 -0.89417,1.6206 -1.2956,2.4573 l 4.37722,1.3457 c -0.29984,0.9513 -0.53621,1.9137 -0.71136,2.8805 v 0 l -4.93897,-1.2127 c -0.34955,0.9406 -0.65895,1.9008 -0.92812,2.8766 l 5.42395,0.7714 c -0.0648,0.7652 0.0503,1.5283 -0.0134,2.29 l -6.13542,0.1515 c -0.18798,1.0502 -0.32878,2.1175 -0.42309,3.1984 l 6.66787,-0.8128 c 0.11573,0.7788 0.32123,1.4678 0.43566,2.2481 l -7.23547,2.1874 c 0.0134,1.1207 0.0861,2.2316 0.20179,3.3267 l 7.80513,-2.784 c 0.24577,0.7441 0.52427,1.4689 0.83662,2.1713 l -8.06731,4.232 c 0.22757,1.0729 0.50229,2.1278 0.82503,3.1625 l 8.64085,-4.7418 c 0.43439,0.6997 0.90386,1.3616 1.40827,1.9845 l -8.86534,6.006 c 0.4193,0.9962 0.8806,1.97 1.38586,2.9169 3.73197,-2.6146 8.63207,-6.0406 11.775031,-8.2377 -4.917721,-5.2309 -6.086791,-10.4623 -5.899191,-15.6917 4.35295,5.491 12.776101,4.25 16.288341,-1.2631 3.058449,-4.8071 0.243898,-10.4232 -5.392841,-11.0425 -3.226551,-0.3582 -6.3666,1.4068 -6.50558,5.456 -0.13188,3.8497 4.767879,6.087 6.87202,3.3644 2.316009,-3.0906 -1.47829,-5.5472 -3.24698,-2.7276 -1.02631,-1.6394 0.957239,-3.5203 2.951441,-3.2197 2.259629,0.3393 3.92933,2.882 3.523109,5.0332 -1.157549,6.179 -10.69817,6.5083 -12.67593,0.6034 -1.40442,-4.1933 0.54502,-7.0895 3.543339,-9.7022 -1.028249,0.2263 -3.024449,0.3709 -4.067289,-0.5467 4.483201,-0.1889 8.468771,-5.3956 12.1241,-6.941 1.763811,-0.7468 3.635701,-1.2491 6.099289,-1.1724 3.201292,0.1016 6.534772,1.1869 5.225661,3.9674 3.401521,-0.7977 9.543661,-5.8596 12.97917,0.4023 -7.167409,-4.4163 -9.683581,3.0653 -14.046269,1.4062 l -0.404212,0.5094 c 0.911591,1.518 2.556082,2.4476 6.28214,0.9166 -0.26529,5.997 6.581431,6.6337 8.556212,1.6556 1.06611,0.8041 2.162419,1.5785 3.310171,2.2442 4.68827,2.7158 14.92393,3.2557 15.74322,7.8799 -2.16343,-1.3674 -5.19066,-1.3226 -5.84872,1.6212 -0.21433,0.9593 -0.004,1.9634 0.58779,2.7378 1.15945,1.5199 4.2509,1.2553 4.15271,-0.5911 -0.81726,0.5219 -1.74143,0.1333 -1.99324,-0.6096 -0.35205,-1.0303 0.49785,-2.0109 1.65223,-1.8582 0.62672,0.082 1.20513,0.5341 1.61814,1.1239 -0.15585,2.0732 0.39352,3.5503 0.77844,4.2171 -4.27329,1.0818 -8.22392,0.5341 -11.86445,-1.3158 -2.64244,-1.3479 -5.5221,-3.389 -8.068451,-5.3956 -2.74251,-2.1594 -7.982882,-8.9938 -12.50877,-4.6349 1.427599,-0.3207 4.438359,-0.095 6.139238,1.8802 1.59866,1.8545 1.852321,4.9197 -0.451339,6.3177 -1.56958,0.9509 -3.85829,0.239 -3.897181,-1.7319 -0.0314,-1.5012 1.815492,-2.918 2.981701,-0.283 1.119571,-1.7933 -0.198649,-3.2033 -1.8523,-3.5728 -2.124649,-0.4717 -3.842769,0.7534 -4.11684,2.9752 -0.19803,1.6129 0.72781,3.3146 2.335411,4.7203 1.819259,1.5917 4.353808,2.5018 6.581359,2.2579 -0.80369,-1.0402 -0.96702,-2.0794 -0.49345,-3.1186 4.88551,4.1005 11.647722,7.6996 17.996882,8.5098 -1.00391,1.8211 -2.18568,2.0809 -3.73969,2.2424 -0.52429,-3.4178 -8.217072,-3.3813 -12.239681,-2.9751 -1.867842,0.1885 -3.73771,0.2953 -5.606621,0.07 -3.685281,-0.6407 -5.701911,-2.6636 -6.918619,-5.0504 l -1.63277,1.0008 c 1.341138,3.3695 3.58617,5.5232 6.732008,7.3147 -0.685059,0.7128 -1.223558,1.4741 -1.620978,2.1896 l -5.233471,-3.0465 c -0.6173,0.9034 -1.166231,1.8314 -1.653159,2.7829 l 5.45901,2.802 c -0.373401,0.758 -0.654151,1.4887 -0.759082,1.9689 -2.015609,-0.8331 -3.858209,-1.4327 -5.846728,-2.206 -0.36903,0.9543 -0.686051,1.9287 -0.955341,2.9194 l 6.136359,2.0448 c -0.21939,0.5846 -0.395398,1.3033 -0.529928,2.1596 l -6.216262,-1.5289 c -0.204948,1.102 -0.364,2.2184 -0.480898,3.348 2.199248,0.2765 4.397629,0.4716 6.597028,0.774 -0.0314,2.9902 0.223782,5.7072 1.073801,8.6955 0.787299,0.1133 1.574419,0.2264 2.35975,0.3396 2.554081,-3.304 5.56287,-6.5542 8.79824,-8.3022 0.019,0.6568 0.233219,1.4729 0.502261,2.0318 -3.443362,2.7444 -6.21806,5.5136 -8.546632,11.3535 -1.778399,0.1067 -3.48016,0 -5.12944,-0.3016 l -0.674449,1.9009 c 1.627841,0.2263 3.28975,0.3457 4.980749,0.3457 1.00783,0 2.005912,-0.063 2.993351,-0.1248 0.996061,-4.5124 3.628879,-8.2395 7.37344,-11.8114 0.84451,0.8009 1.991439,1.2945 3.25579,1.2945 0.41615,0 0.818301,-0.063 1.201211,-0.1515 0.243251,0.195 0.486531,0.4086 0.728941,0.6224 0.91356,0.8077 1.0224,0.6373 0.48278,1.7336 -0.20743,0.4213 -0.41676,0.8449 -0.62485,1.2674 z m -7.324921,-48.1561 c -1.064192,0 -1.925241,-0.8526 -1.925241,-1.9041 0,-1.0518 0.861049,-1.9048 1.925241,-1.9048 1.06409,0 1.92719,0.853 1.92719,1.9048 0,1.0515 -0.8631,1.9041 -1.92719,1.9041 z m 1.878599,11.3995 c 0.0786,-0.5406 0.203031,-1.0474 0.357061,-1.5401 0.922218,0.8826 1.94663,1.7301 3.05262,2.5353 -1.179852,0.4209 -2.373281,0.5657 -3.494871,0.7183 -0.0314,-0.6032 0.01341,-1.1742 0.0861,-1.7135 z m 14.911272,9.7809 c -0.30989,-0.5406 -0.54876,-1.0883 -0.72991,-1.634 -0.18096,-0.5469 -0.3099,-1.0961 -0.40355,-1.6431 -0.93787,0.9518 -1.90583,1.6841 -2.90005,2.2322 -0.2477,-0.6285 -0.42057,-1.232 -0.54253,-1.8161 -0.12072,-0.5845 -0.19047,-1.1547 -0.22252,-1.7137 -1.04668,0.6941 -2.10403,1.1788 -3.16528,1.5162 -0.16917,-0.622 -0.27533,-1.215 -0.32502,-1.7795 -0.044,-0.5659 -0.0503,-1.1109 -0.0134,-1.6407 -1.20899,0.4399 -2.38581,0.6933 -3.540481,0.8184 -0.0379,-0.5971 -0.0011,-1.1265 0.0724,-1.6256 0.0768,-0.4966 0.200531,-0.9699 0.34072,-1.4522 2.464661,1.8458 5.292611,3.6241 8.421191,4.7494 3.03806,1.0926 6.37051,1.2352 9.66513,0.8883 -0.38725,0.5847 -0.79591,1.122 -1.21189,1.6338 -0.42056,0.5217 -0.85619,1.0127 -1.30327,1.4786 -0.36461,-0.4591 -0.65496,-0.9401 -0.88339,-1.4342 -0.23132,-0.4965 -0.40483,-0.9994 -0.54311,-1.5155 -0.85324,1.141 -1.76194,2.1078 -2.70954,2.9377 z m -11.164761,21.7098 c -1.561761,0 -2.82902,-1.253 -2.82902,-2.7962 0,-1.5453 1.267259,-2.7982 2.82902,-2.7982 1.561751,0 2.828141,1.2529 2.828141,2.7982 0,1.5432 -1.26639,2.7962 -2.828141,2.7962 z"
       id="path485-3-3-1-9-1-9"
       inkscape:export-xdpi="41.82"
       inkscape:export-ydpi="41.82" />
    <g
       id="g4356-9-7"
       transform="matrix(0.65475689,0,0,0.65475689,-301.92622,-395.65091)"
       inkscape:export-xdpi="41.82"
       inkscape:export-ydpi="41.82">
      <rect
         inkscape:export-ydpi="34.856476"
         inkscape:export-xdpi="34.856476"
         y="1024.4381"
         x="555.18011"
         height="22.358465"
         width="33.75177"
         id="rect1050-2-3-4-8-7-6-0-9-1-8-1-6"
         style="opacity:1;fill:#e41f51;fill-opacity:1;stroke:none;stroke-width:0.0064312;stroke-miterlimit:4;stroke-dasharray:none" />
      <flowRoot
         inkscape:export-ydpi="34.856476"
         inkscape:export-xdpi="34.856476"
         transform="matrix(2.1520662,0,0,2.1520662,505.32612,770.11169)"
         style="font-style:normal;font-weight:normal;font-size:10.58333302px;line-height:1.25;font-family:sans-serif;letter-spacing:0px;word-spacing:0px;fill:#ffffff;fill-opacity:1;stroke:none;stroke-width:0.26458332"
         id="flowRoot10-7-8-5-3-8-9-3-8-94-1-7-8-6-8"
         xml:space="preserve"><flowRegion
           style="fill:#ffffff;fill-opacity:1;stroke-width:0.26458332"
           id="flowRegion12-8-09-4-7-4-3-7-4-5-3-9-7-2-2"><rect
             style="fill:#ffffff;fill-opacity:1;stroke-width:0.07000434"
             y="117.08333"
             x="23.434523"
             height="62.744045"
             width="159.50595"
             id="rect14-7-7-9-9-8-1-1-88-4-4-3-0-1-0" /></flowRegion><flowPara
           style="font-style:normal;font-variant:normal;font-weight:bold;font-stretch:normal;font-family:'Zilla Slab';-inkscape-font-specification:'Zilla Slab Bold';letter-spacing:0.19671018px;fill:#ffffff;fill-opacity:1;stroke-width:0.26458332"
           id="flowPara18-1-9-8-8-1-4-2-3-6-5-62-5-0-6">mx</flowPara></flowRoot>    </g>
    <g
       style="stroke:none"
       id="g1252-6-6-8-2-87-6-5-1-2-5-4"
       transform="matrix(0.0257266,0,0,0.0257266,8.5710154,274.88188)"
       inkscape:export-xdpi="41.82"
       inkscape:export-ydpi="41.82">
      <rect
         id="rect1248-7-8-9-1-52-3-7-2-7-3-3"
         height="571.90002"
         width="2000"
         y="0"
         x="0" />
      <path
         id="path1250-0-5-6-5-4-99-3-5-9-2-3"
         d="m 1910.2,410.5 c -3.9,1.1 -7.2,1.7 -10.5,1.7 -11.7,0 -17.2,-5 -17.2,-19.4 V 284.1 c 0,-57.1 -45.5,-84.9 -99.3,-84.9 -41.1,0 -63.2,5 -107.1,22.7 l -9.8,57.6 57.1,6.1 8.1,-28.2 c 11.7,-6.1 23.3,-7.2 38.3,-7.2 40.5,0 41.1,30.5 41.1,56 v 8.3 c -12.8,-1.7 -27.2,-2.2 -41.1,-2.2 -57.1,0 -116.5,14.4 -116.5,76 0,52.1 41,71.6 77.1,71.6 40.5,0 66,-24.4 80.4,-49.9 3.3,30.5 21.6,49.9 54.9,49.9 15.5,0 31.6,-4.4 44.9,-11.7 z m -153.6,-1.6 c -21.6,0 -29.4,-12.8 -29.4,-28.9 0,-27.2 22.2,-34.4 47.7,-34.4 11.6,0 24.4,1.7 36.1,3.3 -1.7,41.7 -28.9,60 -54.4,60 z M 1660.5,72.7 1552.3,454.4 h -70.5 L 1590,72.7 Z m -145.3,0 -108.2,381.7 h -70.4 L 1444.8,72.7 Z m -300.4,131.5 h 74.9 V 294 h -74.9 z m 0,160.3 h 74.9 v 89.9 h -74.9 z m -109,-3.3 56.6,5.5 -15.5,87.7 H 928.3 l -7.2,-37.7 137.6,-158.1 h -78.2 l -11.1,38.8 -51.6,-5.6 8.9,-87.7 h 219.7 l 5.6,37.7 -138.8,158.2 h 81 z m -358.5,-162 c -89.9,0 -134.3,60.5 -134.3,133.7 0,79.9 53.3,127 130.4,127 79.9,0 137.6,-50.5 137.6,-130.4 0,-69.9 -43.9,-130.3 -133.7,-130.3 z M 745.6,405 c -38.8,0 -58.8,-33.3 -58.8,-76.6 0,-47.2 22.7,-74.3 59.4,-74.3 33.8,0 61,22.7 61,73.2 0,47.7 -24.4,77.7 -61.6,77.7 z m -197,-5 h 33.3 v 54.4 H 477 V 313.5 c 0,-43.3 -14.4,-59.9 -42.7,-59.9 -34.4,0 -48.3,24.4 -48.3,59.4 v 87 h 33.3 v 54.4 H 314.5 V 313.5 c 0,-43.3 -14.4,-59.9 -42.7,-59.9 -34.4,0 -48.3,24.4 -48.3,59.4 v 87 h 47.7 v 54.4 H 118.7 V 400 H 152 V 258.5 h -33.3 v -54.4 h 104.8 v 37.7 c 15,-26.6 41.1,-42.7 76,-42.7 36.1,0 69.3,17.2 81.6,53.8 13.9,-33.3 42.2,-53.8 81.6,-53.8 44.9,0 86,27.2 86,86.5 V 400 Z"
         class="st0"
         inkscape:connector-curvature="0"
         style="fill:#ffffff" />
    </g>
  </g>
  <g
     transform="translate(0,-204.74797)"
     id="g597"
     inkscape:groupmode="layer"
     inkscape:label="Curva"
     style="display:inline">
    <path
       inkscape:export-ydpi="41.82"
       inkscape:export-xdpi="41.82"
       id="path577"
       d="m 62.968014,272.6873 c 0.68817,0.3773 1.3762,0.7486 2.06417,1.1215 0.37216,-0.828 0.74449,-1.6539 1.11669,-2.4806 0.54626,-1.217 0.54626,-1.0913 -0.38218,-2.0645 -0.37595,-0.3959 -0.75325,-0.7888 -1.1401,-1.2007 l -0.14836,-0.1815 c 0.43251,-0.4213 0.78241,-0.9153 1.02542,-1.4712 l 2.0495,1.8352 c 1.08365,1.1126 1.06125,1.0328 0.49286,2.4811 -0.51233,1.3078 -1.11756,2.5838 -1.6609,3.7801 1.20999,-0.7489 2.37036,-1.5685 3.47835,-2.4524 l 0.68033,-1.5691 c 0.72195,-1.6714 0.79486,-1.5344 -0.34385,-2.9444 -1.31112,-1.622 -2.72326,-3.3608 -4.05083,-4.9629 -3.23044,-3.8957 -6.703853,-3.0862 -10.794383,-0.3205 -3.08955,2.0863 -5.718418,4.7352 -7.823509,7.2128 -0.70167,-2.7201 -0.680239,-5.664 -0.217509,-8.6104 0.893088,-5.6968 3.32659,-10.5228 9.474639,-12.2575 2.93886,-0.8299 5.930272,-0.8463 8.794382,0.289 1.35383,0.5343 2.25377,1.3742 1.56552,2.7528 3.37335,0.2515 6.33862,-1.3949 8.94898,-4.6764 5.04014,0.4714 3.89812,-4.2031 6.73601,-6.4836 -1.33631,-1.8836 -1.62786,-3.4551 -1.50923,-5.8758 0.29355,-6.0343 -4.27236,-7.0633 -9.16476,-8.4614 -3.29068,-0.9406 -6.25678,-2.204 -8.79727,-3.8894 -1.187623,-7.1777 -5.410312,-9.9715 -12.980052,-7.7965 -4.230621,-2.0191 -9.62728,-3.7433 -16.186409,-1.1485 -4.251841,1.6804 -9.456141,7.7809 -14.163751,7.8833 -0.65413,0.7858 -1.27516,1.6005 -1.86215,2.4427 l 3.29756,2.079 c -0.25461,0.4525 -0.48719,0.9115 -0.7076,1.3774 h -0.0134 l -0.30616,0.5971 -3.89311,-1.5212 c -0.46143,0.7989 -0.89417,1.6206 -1.2956,2.4573 l 4.37722,1.3457 c -0.29984,0.9513 -0.53621,1.9137 -0.71136,2.8805 v 0 l -4.93897,-1.2127 c -0.34955,0.9406 -0.65895,1.9008 -0.92812,2.8766 l 5.42395,0.7714 c -0.0648,0.7652 0.0503,1.5283 -0.0134,2.29 l -6.13542,0.1515 c -0.18798,1.0502 -0.32878,2.1175 -0.42309,3.1984 l 6.66787,-0.8128 c 0.11573,0.7788 0.32123,1.4678 0.43566,2.2481 l -7.23547,2.1874 c 0.0134,1.1207 0.0861,2.2316 0.20179,3.3267 l 7.80513,-2.784 c 0.24577,0.7441 0.52427,1.4689 0.83662,2.1713 l -8.06731,4.232 c 0.22757,1.0729 0.50229,2.1278 0.82503,3.1625 l 8.64085,-4.7418 c 0.43439,0.6997 0.90386,1.3616 1.40827,1.9845 l -8.86534,6.006 c 0.4193,0.9962 0.8806,1.97 1.38586,2.9169 3.73197,-2.6146 8.63207,-6.0406 11.775031,-8.2377 -4.917721,-5.2309 -6.086791,-10.4623 -5.899191,-15.6917 4.35295,5.491 12.776101,4.25 16.288341,-1.2631 3.058449,-4.8071 0.243898,-10.4232 -5.392841,-11.0425 -3.226551,-0.3582 -6.3666,1.4068 -6.50558,5.456 -0.13188,3.8497 4.767879,6.087 6.87202,3.3644 2.316009,-3.0906 -1.47829,-5.5472 -3.24698,-2.7276 -1.02631,-1.6394 0.957239,-3.5203 2.951441,-3.2197 2.259629,0.3393 3.92933,2.882 3.523109,5.0332 -1.157549,6.179 -10.69817,6.5083 -12.67593,0.6034 -1.40442,-4.1933 0.54502,-7.0895 3.543339,-9.7022 -1.028249,0.2263 -3.024449,0.3709 -4.067289,-0.5467 4.483201,-0.1889 8.468771,-5.3956 12.1241,-6.941 1.763811,-0.7468 3.635701,-1.2491 6.099289,-1.1724 3.201292,0.1016 6.534772,1.1869 5.225661,3.9674 3.401521,-0.7977 9.543661,-5.8596 12.97917,0.4023 -7.167409,-4.4163 -9.683581,3.0653 -14.046269,1.4062 l -0.404212,0.5094 c 0.911591,1.518 2.556082,2.4476 6.28214,0.9166 -0.26529,5.997 6.581431,6.6337 8.556212,1.6556 1.06611,0.8041 2.162419,1.5785 3.310171,2.2442 4.68827,2.7158 14.92393,3.2557 15.74322,7.8799 -2.16343,-1.3674 -5.19066,-1.3226 -5.84872,1.6212 -0.21433,0.9593 -0.004,1.9634 0.58779,2.7378 1.15945,1.5199 4.2509,1.2553 4.15271,-0.5911 -0.81726,0.5219 -1.74143,0.1333 -1.99324,-0.6096 -0.35205,-1.0303 0.49785,-2.0109 1.65223,-1.8582 0.62672,0.082 1.20513,0.5341 1.61814,1.1239 -0.15585,2.0732 0.39352,3.5503 0.77844,4.2171 -4.27329,1.0818 -8.22392,0.5341 -11.86445,-1.3158 -2.64244,-1.3479 -5.5221,-3.389 -8.068451,-5.3956 -2.74251,-2.1594 -7.982882,-8.9938 -12.50877,-4.6349 1.427599,-0.3207 4.438359,-0.095 6.139238,1.8802 1.59866,1.8545 1.852321,4.9197 -0.451339,6.3177 -1.56958,0.9509 -3.85829,0.239 -3.897181,-1.7319 -0.0314,-1.5012 1.815492,-2.918 2.981701,-0.283 1.119571,-1.7933 -0.198649,-3.2033 -1.8523,-3.5728 -2.124649,-0.4717 -3.842769,0.7534 -4.11684,2.9752 -0.19803,1.6129 0.72781,3.3146 2.335411,4.7203 1.819259,1.5917 4.353808,2.5018 6.581359,2.2579 -0.80369,-1.0402 -0.96702,-2.0794 -0.49345,-3.1186 4.88551,4.1005 11.647722,7.6996 17.996882,8.5098 -1.00391,1.8211 -2.18568,2.0809 -3.73969,2.2424 -0.52429,-3.4178 -8.217072,-3.3813 -12.239681,-2.9751 -1.867842,0.1885 -3.73771,0.2953 -5.606621,0.07 -3.685281,-0.6407 -5.701911,-2.6636 -6.918619,-5.0504 l -1.63277,1.0008 c 1.341138,3.3695 3.58617,5.5232 6.732008,7.3147 -0.685059,0.7128 -1.223558,1.4741 -1.620978,2.1896 l -5.233471,-3.0465 c -0.6173,0.9034 -1.166231,1.8314 -1.653159,2.7829 l 5.45901,2.802 c -0.373401,0.758 -0.654151,1.4887 -0.759082,1.9689 -2.015609,-0.8331 -3.858209,-1.4327 -5.846728,-2.206 -0.36903,0.9543 -0.686051,1.9287 -0.955341,2.9194 l 6.136359,2.0448 c -0.21939,0.5846 -0.395398,1.3033 -0.529928,2.1596 l -6.216262,-1.5289 c -0.204948,1.102 -0.364,2.2184 -0.480898,3.348 2.199248,0.2765 4.397629,0.4716 6.597028,0.774 -0.0314,2.9902 0.223782,5.7072 1.073801,8.6955 0.787299,0.1133 1.574419,0.2264 2.35975,0.3396 2.554081,-3.304 5.56287,-6.5542 8.79824,-8.3022 0.019,0.6568 0.233219,1.4729 0.502261,2.0318 -3.443362,2.7444 -6.21806,5.5136 -8.546632,11.3535 -1.778399,0.1067 -3.48016,0 -5.12944,-0.3016 l -0.674449,1.9009 c 1.627841,0.2263 3.28975,0.3457 4.980749,0.3457 1.00783,0 2.005912,-0.063 2.993351,-0.1248 0.996061,-4.5124 3.628879,-8.2395 7.37344,-11.8114 0.84451,0.8009 1.991439,1.2945 3.25579,1.2945 0.41615,0 0.818301,-0.063 1.201211,-0.1515 0.243251,0.195 0.486531,0.4086 0.728941,0.6224 0.91356,0.8077 1.0224,0.6373 0.48278,1.7336 -0.20743,0.4213 -0.41676,0.8449 -0.62485,1.2674 z m -7.324921,-48.1561 c -1.064192,0 -1.925241,-0.8526 -1.925241,-1.9041 0,-1.0518 0.861049,-1.9048 1.925241,-1.9048 1.06409,0 1.92719,0.853 1.92719,1.9048 0,1.0515 -0.8631,1.9041 -1.92719,1.9041 z m 1.878599,11.3995 c 0.0786,-0.5406 0.203031,-1.0474 0.357061,-1.5401 0.922218,0.8826 1.94663,1.7301 3.05262,2.5353 -1.179852,0.4209 -2.373281,0.5657 -3.494871,0.7183 -0.0314,-0.6032 0.01341,-1.1742 0.0861,-1.7135 z m 14.911272,9.7809 c -0.30989,-0.5406 -0.54876,-1.0883 -0.72991,-1.634 -0.18096,-0.5469 -0.3099,-1.0961 -0.40355,-1.6431 -0.93787,0.9518 -1.90583,1.6841 -2.90005,2.2322 -0.2477,-0.6285 -0.42057,-1.232 -0.54253,-1.8161 -0.12072,-0.5845 -0.19047,-1.1547 -0.22252,-1.7137 -1.04668,0.6941 -2.10403,1.1788 -3.16528,1.5162 -0.16917,-0.622 -0.27533,-1.215 -0.32502,-1.7795 -0.044,-0.5659 -0.0503,-1.1109 -0.0134,-1.6407 -1.20899,0.4399 -2.38581,0.6933 -3.540481,0.8184 -0.0379,-0.5971 -0.0011,-1.1265 0.0724,-1.6256 0.0768,-0.4966 0.200531,-0.9699 0.34072,-1.4522 2.464661,1.8458 5.292611,3.6241 8.421191,4.7494 3.03806,1.0926 6.37051,1.2352 9.66513,0.8883 -0.38725,0.5847 -0.79591,1.122 -1.21189,1.6338 -0.42056,0.5217 -0.85619,1.0127 -1.30327,1.4786 -0.36461,-0.4591 -0.65496,-0.9401 -0.88339,-1.4342 -0.23132,-0.4965 -0.40483,-0.9994 -0.54311,-1.5155 -0.85324,1.141 -1.76194,2.1078 -2.70954,2.9377 z m -11.164761,21.7098 c -1.561761,0 -2.82902,-1.253 -2.82902,-2.7962 0,-1.5453 1.267259,-2.7982 2.82902,-2.7982 1.561751,0 2.828141,1.2529 2.828141,2.7982 0,1.5432 -1.26639,2.7962 -2.828141,2.7962 z"
       inkscape:connector-curvature="0"
       style="fill:#e41f51;fill-opacity:1;stroke-width:0.97186005" />
    <g
       inkscape:export-ydpi="41.82"
       inkscape:export-xdpi="41.82"
       transform="matrix(0.65475689,0,0,0.65475689,-301.92622,-395.65091)"
       id="g589">
      <rect
         style="opacity:1;fill:#e41f51;fill-opacity:1;stroke:none;stroke-width:0.0064312;stroke-miterlimit:4;stroke-dasharray:none"
         id="rect579"
         width="33.75177"
         height="22.358465"
         x="555.18011"
         y="1024.4381"
         inkscape:export-xdpi="34.856476"
         inkscape:export-ydpi="34.856476" />
    </g>
    <g
       inkscape:export-ydpi="41.82"
       inkscape:export-xdpi="41.82"
       transform="matrix(0.0257266,0,0,0.0257266,8.5710154,274.88188)"
       id="g595"
       style="stroke:none">
      <rect
         x="0"
         y="0"
         width="2000"
         height="571.90002"
         id="rect591" />
      <path
         style="fill:#ffffff"
         inkscape:connector-curvature="0"
         class="st0"
         d="m 1910.2,410.5 c -3.9,1.1 -7.2,1.7 -10.5,1.7 -11.7,0 -17.2,-5 -17.2,-19.4 V 284.1 c 0,-57.1 -45.5,-84.9 -99.3,-84.9 -41.1,0 -63.2,5 -107.1,22.7 l -9.8,57.6 57.1,6.1 8.1,-28.2 c 11.7,-6.1 23.3,-7.2 38.3,-7.2 40.5,0 41.1,30.5 41.1,56 v 8.3 c -12.8,-1.7 -27.2,-2.2 -41.1,-2.2 -57.1,0 -116.5,14.4 -116.5,76 0,52.1 41,71.6 77.1,71.6 40.5,0 66,-24.4 80.4,-49.9 3.3,30.5 21.6,49.9 54.9,49.9 15.5,0 31.6,-4.4 44.9,-11.7 z m -153.6,-1.6 c -21.6,0 -29.4,-12.8 -29.4,-28.9 0,-27.2 22.2,-34.4 47.7,-34.4 11.6,0 24.4,1.7 36.1,3.3 -1.7,41.7 -28.9,60 -54.4,60 z M 1660.5,72.7 1552.3,454.4 h -70.5 L 1590,72.7 Z m -145.3,0 -108.2,381.7 h -70.4 L 1444.8,72.7 Z m -300.4,131.5 h 74.9 V 294 h -74.9 z m 0,160.3 h 74.9 v 89.9 h -74.9 z m -109,-3.3 56.6,5.5 -15.5,87.7 H 928.3 l -7.2,-37.7 137.6,-158.1 h -78.2 l -11.1,38.8 -51.6,-5.6 8.9,-87.7 h 219.7 l 5.6,37.7 -138.8,158.2 h 81 z m -358.5,-162 c -89.9,0 -134.3,60.5 -134.3,133.7 0,79.9 53.3,127 130.4,127 79.9,0 137.6,-50.5 137.6,-130.4 0,-69.9 -43.9,-130.3 -133.7,-130.3 z M 745.6,405 c -38.8,0 -58.8,-33.3 -58.8,-76.6 0,-47.2 22.7,-74.3 59.4,-74.3 33.8,0 61,22.7 61,73.2 0,47.7 -24.4,77.7 -61.6,77.7 z m -197,-5 h 33.3 v 54.4 H 477 V 313.5 c 0,-43.3 -14.4,-59.9 -42.7,-59.9 -34.4,0 -48.3,24.4 -48.3,59.4 v 87 h 33.3 v 54.4 H 314.5 V 313.5 c 0,-43.3 -14.4,-59.9 -42.7,-59.9 -34.4,0 -48.3,24.4 -48.3,59.4 v 87 h 47.7 v 54.4 H 118.7 V 400 H 152 V 258.5 h -33.3 v -54.4 h 104.8 v 37.7 c 15,-26.6 41.1,-42.7 76,-42.7 36.1,0 69.3,17.2 81.6,53.8 13.9,-33.3 42.2,-53.8 81.6,-53.8 44.9,0 86,27.2 86,86.5 V 400 Z"
         id="path593" />
    </g>
    <g
       aria-label="mx"
       transform="matrix(1.4090802,0,0,1.4090802,28.939539,108.58502)"
       style="font-style:normal;font-weight:normal;font-size:10.58333302px;line-height:1.25;font-family:sans-serif;letter-spacing:0px;word-spacing:0px;display:inline;fill:#ffffff;fill-opacity:1;stroke:none;stroke-width:0.26458332"
       id="flowRoot587">
      <path
         d="m 32.577593,126.73598 v -1.02658 h -0.635 v -2.19075 c 0,-1.13242 -0.783166,-1.651 -1.640416,-1.651 -0.751417,0 -1.291167,0.39158 -1.55575,1.02658 -0.232833,-0.6985 -0.867833,-1.02658 -1.55575,-1.02658 -0.66675,0 -1.164167,0.30692 -1.449917,0.81492 v -0.71967 h -1.989666 v 1.03717 h 0.624416 v 2.70933 h -0.635 v 1.02658 h 2.910417 V 125.7094 H 25.74076 v -1.67217 c 0,-0.66675 0.264584,-1.13241 0.92075,-1.13241 0.53975,0 0.814917,0.3175 0.814917,1.143 v 2.68816 h 2.00025 v -1.02658 h -0.635 v -1.67217 c 0,-0.66675 0.264583,-1.13241 0.92075,-1.13241 0.53975,0 0.814917,0.3175 0.814917,1.143 v 2.68816 z"
         style="font-style:normal;font-variant:normal;font-weight:bold;font-stretch:normal;font-family:'Zilla Slab';-inkscape-font-specification:'Zilla Slab Bold';letter-spacing:0.19671018px;fill:#ffffff;fill-opacity:1;stroke-width:0.26458332"
         id="path623" />
      <path
         d="m 38.446474,126.73598 v -1.02658 h -0.465666 l -1.449917,-1.47108 1.30175,-1.24884 h 0.47625 v -1.02658 h -2.074333 v 1.02658 h 0.3175 l -0.687917,0.70909 -0.645583,-0.70909 h 0.328083 v -1.02658 h -2.413 v 1.02658 h 0.47625 l 1.439334,1.397 -1.312334,1.32292 h -0.656166 v 1.02658 h 2.233083 v -1.02658 h -0.306917 l 0.687917,-0.75142 0.6985,0.75142 h -0.34925 v 1.02658 z"
         style="font-style:normal;font-variant:normal;font-weight:bold;font-stretch:normal;font-family:'Zilla Slab';-inkscape-font-specification:'Zilla Slab Bold';letter-spacing:0.19671018px;fill:#ffffff;fill-opacity:1;stroke-width:0.26458332"
         id="path625" />
    </g>
  </g>
</svg>
